<?xml version="1.0" encoding="utf-8"?>
<!-- Generator: Adobe Illustrator 27.0.0, SVG Export Plug-In . SVG Version: 6.00 Build 0)  -->
<svg version="1.1" id="图层_1" xmlns="http://www.w3.org/2000/svg" xmlns:xlink="http://www.w3.org/1999/xlink" x="0px" y="0px"
	 viewBox="0 0 32 32" style="enable-background:new 0 0 32 32;" xml:space="preserve">
<style type="text/css">
	.st0{fill:#DB362F;}
	.st1{fill:#FFFF00;}
</style>
<rect x="1" y="4" class="st0" width="30" height="24"/>
<g>
	<polygon class="st1" points="8,10.2 7.2,7.8 6.4,10.2 3.9,10.2 5.9,11.6 5.2,14 7.2,12.5 9.2,14 8.4,11.6 10.4,10.2 	"/>
	<polygon class="st1" points="12.7,8.2 13.2,8.9 13.2,8.1 14,7.9 13.3,7.6 13.3,6.7 12.8,7.4 12,7 12.5,7.7 11.9,8.4 	"/>
	<polygon class="st1" points="14.9,10.4 15,11.2 15.4,10.5 16.2,10.6 15.6,10 16,9.3 15.3,9.6 14.7,9 14.8,9.9 14,10.2 	"/>
	<polygon class="st1" points="16.2,13.1 15.4,13.1 15.1,12.4 14.9,13.1 14.1,13.2 14.8,13.6 14.5,14.4 15.2,13.9 15.9,14.4 
		15.6,13.6 	"/>
	<polygon class="st1" points="13.3,14.7 12.8,15.4 12,15.1 12.5,15.8 11.9,16.4 12.7,16.2 13.2,16.9 13.2,16 14,15.8 13.3,15.5 	"/>
</g>
</svg>
