<?xml version="1.0" encoding="utf-8"?>
<!-- Generator: Adobe Illustrator 27.0.0, SVG Export Plug-In . SVG Version: 6.00 Build 0)  -->
<svg version="1.1" id="图层_1" xmlns="http://www.w3.org/2000/svg" xmlns:xlink="http://www.w3.org/1999/xlink" x="0px" y="0px"
	 viewBox="0 0 32 32" style="enable-background:new 0 0 32 32;" xml:space="preserve">
<style type="text/css">
	.st0{fill:#A62842;}
	.st1{fill:#102D5E;}
	.st2{fill:#FFFFFF;}
</style>
<g>
	<rect x="1" y="11.4" class="st0" width="30" height="1.8"/>
	<rect x="1" y="7.7" class="st0" width="30" height="1.8"/>
	<rect x="1" y="4" class="st0" width="30" height="1.8"/>
	<rect x="1" y="15.1" class="st0" width="30" height="1.8"/>
	<rect x="1" y="18.8" class="st0" width="30" height="1.8"/>
	<rect x="1" y="22.5" class="st0" width="30" height="1.8"/>
	<rect x="1" y="26.2" class="st0" width="30" height="1.8"/>
</g>
<rect x="1" y="4" class="st1" width="15" height="12.9"/>
<g>
	<polygon class="st2" points="3.4,7.7 4,7.3 4.6,7.7 4.4,7 5,6.6 4.3,6.6 4,5.9 3.8,6.6 3.1,6.6 3.7,7 	"/>
	<polygon class="st2" points="6.4,7.7 7,7.3 7.6,7.7 7.4,7 8,6.6 7.2,6.6 7,5.9 6.8,6.6 6.1,6.6 6.6,7 	"/>
	<polygon class="st2" points="9.4,7.7 10,7.3 10.6,7.7 10.4,7 10.9,6.6 10.2,6.6 10,5.9 9.8,6.6 9,6.6 9.6,7 	"/>
	<polygon class="st2" points="5.1,8.9 4.9,9.6 5.5,9.1 6.1,9.6 5.9,8.9 6.5,8.4 5.7,8.4 5.5,7.7 5.3,8.4 4.5,8.4 	"/>
	<polygon class="st2" points="8.1,8.9 7.9,9.6 8.5,9.1 9.1,9.6 8.8,8.9 9.4,8.4 8.7,8.4 8.5,7.7 8.2,8.4 7.5,8.4 	"/>
	<polygon class="st2" points="11.1,8.9 10.9,9.6 11.5,9.1 12,9.6 11.8,8.9 12.4,8.4 11.7,8.4 11.5,7.7 11.2,8.4 10.5,8.4 	"/>
	<polygon class="st2" points="5.9,12.5 6.5,12.1 5.7,12.1 5.5,11.4 5.3,12.1 4.5,12.1 5.1,12.5 4.9,13.2 5.5,12.8 6.1,13.2 	"/>
	<polygon class="st2" points="8.8,12.5 9.4,12.1 8.7,12.1 8.5,11.4 8.2,12.1 7.5,12.1 8.1,12.5 7.9,13.2 8.5,12.8 9.1,13.2 	"/>
	<polygon class="st2" points="11.8,12.5 12.4,12.1 11.7,12.1 11.5,11.4 11.2,12.1 10.5,12.1 11.1,12.5 10.9,13.2 11.5,12.8 12,13.2 
			"/>
	<polygon class="st2" points="12.4,7.7 13,7.3 13.6,7.7 13.3,7 13.9,6.6 13.2,6.6 13,5.9 12.7,6.6 12,6.6 12.6,7 	"/>
	<polygon class="st2" points="3.4,11.4 4,10.9 4.6,11.4 4.4,10.7 5,10.2 4.3,10.2 4,9.6 3.8,10.2 3.1,10.2 3.7,10.7 	"/>
	<polygon class="st2" points="7.2,10.2 7,9.6 6.8,10.2 6.1,10.2 6.6,10.7 6.4,11.4 7,10.9 7.6,11.4 7.4,10.7 8,10.2 	"/>
	<polygon class="st2" points="10.2,10.2 10,9.6 9.8,10.2 9,10.2 9.6,10.7 9.4,11.4 10,10.9 10.6,11.4 10.4,10.7 10.9,10.2 	"/>
	<polygon class="st2" points="13,9.6 12.7,10.2 12,10.2 12.6,10.7 12.4,11.4 13,10.9 13.6,11.4 13.3,10.7 13.9,10.2 13.2,10.2 	"/>
	<polygon class="st2" points="4.3,13.9 4,13.2 3.8,13.9 3.1,13.9 3.7,14.3 3.4,15 4,14.6 4.6,15 4.4,14.3 5,13.9 	"/>
	<polygon class="st2" points="7.2,13.9 7,13.2 6.8,13.9 6.1,13.9 6.6,14.3 6.4,15 7,14.6 7.6,15 7.4,14.3 8,13.9 	"/>
	<polygon class="st2" points="10.2,13.9 10,13.2 9.8,13.9 9,13.9 9.6,14.3 9.4,15 10,14.6 10.6,15 10.4,14.3 10.9,13.9 	"/>
	<polygon class="st2" points="13.2,13.9 13,13.2 12.7,13.9 12,13.9 12.6,14.3 12.4,15 13,14.6 13.6,15 13.3,14.3 13.9,13.9 	"/>
</g>
</svg>
