<svg preserveAspectRatio="none" width="100%" height="100%" overflow="visible" style="display: block;" viewBox="0 0 38.6087 36" fill="none" xmlns="http://www.w3.org/2000/svg">
<g id="&#229;&#143;&#171;&#229;&#143;&#183;&#233;&#135;&#143;" filter="url(#filter0_d_0_604)">
<rect id="Rectangle 34625005" x="8" y="4" width="22.6087" height="3.47829" rx="1.73914" fill="var(--fill-0, #8AB0FF)"/>
<path id="Vector" d="M9.74036 9.27378V22.8228C10.3996 22.8228 10.9352 23.3505 10.9352 24H13.3281C13.3281 23.3505 13.8637 22.8228 14.523 22.8228C15.1822 22.8228 15.7178 23.3505 15.7178 24H18.1107C18.1107 23.3505 18.6463 22.8228 19.3056 22.8228C19.9648 22.8228 20.5004 23.3505 20.5004 24H22.8933C22.8933 23.3505 23.429 22.8228 24.0882 22.8228C24.7474 22.8228 25.2831 23.3505 25.2831 24H27.6759C27.6759 23.3505 28.2116 22.8228 28.8708 22.8228V5.73899H9.74036V9.27378Z" fill="url(#paint0_linear_0_604)"/>
<g id="&#231;&#148;&#168;&#230;&#136;&#183; 1" clip-path="url(#clip0_0_604)">
<path id="Vector_2" d="M19.4158 8.98919C18.1354 8.98919 17.0974 10.0102 17.0974 11.2695C17.0974 12.5291 18.1354 13.5502 19.4158 13.5502C20.6963 13.5502 21.7342 12.5291 21.7342 11.2695C21.7342 10.0099 20.6959 8.98919 19.4158 8.98919ZM19.4158 8.98919C18.1354 8.98919 17.0974 10.0102 17.0974 11.2695C17.0974 12.5291 18.1354 13.5502 19.4158 13.5502C20.6963 13.5502 21.7342 12.5291 21.7342 11.2695C21.7342 10.0099 20.6959 8.98919 19.4158 8.98919ZM20.2852 14.3105H18.3528C16.6988 14.3105 15.3581 15.629 15.3581 17.2561V17.4458C15.3581 18.087 16.6991 18.1114 18.3528 18.1114H20.2852C21.9393 18.1114 23.2799 18.1105 23.2799 17.4458V17.2561C23.2799 15.629 21.9393 14.3105 20.2852 14.3105Z" fill="var(--fill-0, white)"/>
</g>
</g>
<defs>
<filter id="filter0_d_0_604" x="0" y="0" width="38.6087" height="36" filterUnits="userSpaceOnUse" color-interpolation-filters="sRGB">
<feFlood flood-opacity="0" result="BackgroundImageFix"/>
<feColorMatrix in="SourceAlpha" type="matrix" values="0 0 0 0 0 0 0 0 0 0 0 0 0 0 0 0 0 0 127 0" result="hardAlpha"/>
<feOffset dy="4"/>
<feGaussianBlur stdDeviation="4"/>
<feComposite in2="hardAlpha" operator="out"/>
<feColorMatrix type="matrix" values="0 0 0 0 0.266667 0 0 0 0 0.407843 0 0 0 0 0.866667 0 0 0 0.2 0"/>
<feBlend mode="normal" in2="BackgroundImageFix" result="effect1_dropShadow_0_604"/>
<feBlend mode="normal" in="SourceGraphic" in2="effect1_dropShadow_0_604" result="shape"/>
</filter>
<linearGradient id="paint0_linear_0_604" x1="19.3056" y1="6.01561" x2="19.3056" y2="24" gradientUnits="userSpaceOnUse">
<stop stop-color="#3354EF"/>
<stop offset="1" stop-color="#799AFF"/>
</linearGradient>
<clipPath id="clip0_0_604">
<rect width="10.4348" height="10.4348" fill="white" transform="matrix(-1 0 0 1 24.5216 8.3479)"/>
</clipPath>
</defs>
</svg>
