<svg preserveAspectRatio="none" width="100%" height="100%" overflow="visible" style="display: block;" viewBox="0 0 36 36" fill="none" xmlns="http://www.w3.org/2000/svg">
<g id="&#229;&#146;&#168;&#232;&#175;&#162;&#233;&#135;&#143;" filter="url(#filter0_d_0_431)">
<path id="Vector" d="M17.2962 4C12.1861 4 8 7.73448 8 12.3657C8 15.1905 9.57347 17.7354 11.968 19.2619V21.8587C11.968 22.1956 12.1861 22.421 12.4582 22.421C12.5611 22.421 12.6763 22.3666 12.7277 22.3666L15.2791 20.6173C15.936 20.7261 16.5805 20.7909 17.2374 20.7909C22.3499 20.7909 26.536 17.0564 26.536 12.4227C26.5948 7.73448 22.4112 4 17.2962 4Z" fill="url(#paint0_linear_0_431)"/>
<path id="Vector_2" d="M26.9973 14.5815L26.9468 14.5263C26.7857 15.0933 26.6319 15.6603 26.3674 16.1748C26.1607 16.566 25.0764 18.5321 23.7782 19.5296C22.3766 20.6032 20.1648 21.0836 20.1648 21.0836C19.5205 21.2595 18.8882 21.3146 18.2439 21.3697C19.256 22.3462 20.6937 22.9159 22.2972 22.9159C22.7276 22.9159 23.0954 22.9159 23.5234 22.8056L25.0668 23.9449C25.1173 23.9449 25.1678 24 25.2303 24C25.3938 24 25.5476 23.8897 25.5476 23.6614V22.005C27.0382 21.0311 27.9998 19.4299 27.9998 17.5976C28.0094 16.4111 27.6416 15.3821 26.9973 14.5815Z" fill="var(--fill-0, #8AB0FF)"/>
<path id="Vector_3" d="M13.4532 13.0963C12.7961 13.0991 12.2612 12.5588 12.253 11.8849C12.253 11.2109 12.7961 10.6734 13.4532 10.6734C14.1076 10.6706 14.6425 11.2109 14.6534 11.8849C14.6425 12.556 14.1076 13.0963 13.4532 13.0963ZM18.344 12.9794C17.9802 13.2244 17.5077 13.2244 17.1438 12.9794C16.7854 12.7343 16.5438 12.3165 16.5438 11.8849C16.5438 11.2109 17.0868 10.6734 17.7439 10.6734C18.401 10.6706 18.936 11.2109 18.9441 11.8849C18.9441 12.3722 18.7024 12.7343 18.344 12.9794ZM21.8418 13.0963C21.1847 13.0991 20.6498 12.5588 20.6417 11.8849C20.6417 11.2109 21.1847 10.6734 21.8418 10.6734C22.4962 10.6706 23.0339 11.2109 23.042 11.8849C23.0312 12.556 22.4962 13.0963 21.8418 13.0963Z" fill="var(--fill-0, white)"/>
</g>
<defs>
<filter id="filter0_d_0_431" x="0" y="0" width="36" height="36" filterUnits="userSpaceOnUse" color-interpolation-filters="sRGB">
<feFlood flood-opacity="0" result="BackgroundImageFix"/>
<feColorMatrix in="SourceAlpha" type="matrix" values="0 0 0 0 0 0 0 0 0 0 0 0 0 0 0 0 0 0 127 0" result="hardAlpha"/>
<feOffset dy="4"/>
<feGaussianBlur stdDeviation="4"/>
<feComposite in2="hardAlpha" operator="out"/>
<feColorMatrix type="matrix" values="0 0 0 0 0.266667 0 0 0 0 0.407843 0 0 0 0 0.866667 0 0 0 0.2 0"/>
<feBlend mode="normal" in2="BackgroundImageFix" result="effect1_dropShadow_0_431"/>
<feBlend mode="normal" in="SourceGraphic" in2="effect1_dropShadow_0_431" result="shape"/>
</filter>
<linearGradient id="paint0_linear_0_431" x1="17.2683" y1="4.07511" x2="17.2683" y2="22.421" gradientUnits="userSpaceOnUse">
<stop stop-color="#3354EF"/>
<stop offset="1" stop-color="#799AFF"/>
</linearGradient>
</defs>
</svg>
