<svg preserveAspectRatio="none" width="100%" height="100%" overflow="visible" style="display: block;" viewBox="0 0 32.8392 36" fill="none" xmlns="http://www.w3.org/2000/svg">
<g id="&#229;&#146;&#168;&#232;&#175;&#162;&#233;&#135;&#143;" filter="url(#filter0_d_0_627)">
<path id="Vector" d="M15.827 4C11.5245 4 8 7.73448 8 12.3657C8 15.1905 9.3248 17.7354 11.3409 19.2619V21.8587C11.3409 22.1956 11.5245 22.421 11.7536 22.421C11.8403 22.421 11.9372 22.3666 11.9806 22.3666L14.1287 20.6173C14.6818 20.7261 15.2245 20.7909 15.7775 20.7909C20.0821 20.7909 23.6066 17.0564 23.6066 12.4227C23.6561 7.73448 20.1337 4 15.827 4Z" fill="url(#paint0_linear_0_627)"/>
<path id="Vector_2" d="M23.995 14.5815L23.9525 14.5264C23.8169 15.0934 23.6873 15.6604 23.4646 16.1749C23.2906 16.566 22.3777 18.5321 21.2846 19.5296C20.1045 20.6033 18.2423 21.0837 18.2423 21.0837C17.6998 21.2595 17.1674 21.3147 16.6249 21.3698C17.4771 22.3463 18.6876 22.9159 20.0377 22.9159C20.4 22.9159 20.7097 22.9159 21.07 22.8057L22.3696 23.9449C22.4121 23.9449 22.4546 24 22.5072 24C22.6449 24 22.7744 23.8898 22.7744 23.6614V22.005C24.0294 21.0312 24.8391 19.4299 24.8391 17.5976C24.8472 16.4111 24.5375 15.3821 23.995 14.5815Z" fill="var(--fill-0, #8AB0FF)"/>
<path id="Vector_3" d="M12.2739 12.9989C11.6709 13.0015 11.1801 12.5057 11.1726 11.8873C11.1726 11.2689 11.6709 10.7757 12.2739 10.7757C12.8744 10.7732 13.3652 11.2689 13.3752 11.8873C13.3652 12.5032 12.8744 12.9989 12.2739 12.9989ZM16.7616 12.8916C16.4277 13.1165 15.9942 13.1165 15.6604 12.8916C15.3315 12.6667 15.1097 12.2834 15.1097 11.8873C15.1097 11.2689 15.608 10.7757 16.211 10.7757C16.8139 10.7732 17.3048 11.2689 17.3122 11.8873C17.3122 12.3345 17.0905 12.6667 16.7616 12.8916ZM19.9712 12.9989C19.3682 13.0015 18.8774 12.5057 18.8699 11.8873C18.8699 11.2689 19.3682 10.7757 19.9712 10.7757C20.5716 10.7732 21.065 11.2689 21.0724 11.8873C21.0625 12.5032 20.5716 12.9989 19.9712 12.9989Z" fill="var(--fill-0, white)"/>
</g>
<defs>
<filter id="filter0_d_0_627" x="-3.18076e-07" y="0" width="32.8392" height="36" filterUnits="userSpaceOnUse" color-interpolation-filters="sRGB">
<feFlood flood-opacity="0" result="BackgroundImageFix"/>
<feColorMatrix in="SourceAlpha" type="matrix" values="0 0 0 0 0 0 0 0 0 0 0 0 0 0 0 0 0 0 127 0" result="hardAlpha"/>
<feOffset dy="4"/>
<feGaussianBlur stdDeviation="4"/>
<feComposite in2="hardAlpha" operator="out"/>
<feColorMatrix type="matrix" values="0 0 0 0 0.266667 0 0 0 0 0.407843 0 0 0 0 0.866667 0 0 0 0.2 0"/>
<feBlend mode="normal" in2="BackgroundImageFix" result="effect1_dropShadow_0_627"/>
<feBlend mode="normal" in="SourceGraphic" in2="effect1_dropShadow_0_627" result="shape"/>
</filter>
<linearGradient id="paint0_linear_0_627" x1="15.8036" y1="4.07511" x2="15.8036" y2="22.421" gradientUnits="userSpaceOnUse">
<stop stop-color="#3354EF"/>
<stop offset="1" stop-color="#799AFF"/>
</linearGradient>
</defs>
</svg>
