<svg preserveAspectRatio="none" width="100%" height="100%" overflow="visible" style="display: block;" viewBox="0 0 32.839 36.0001" fill="none" xmlns="http://www.w3.org/2000/svg">
<g id="&#229;&#185;&#179;&#229;&#157;&#135;&#230;&#151;&#182;&#233;&#149;&#191;" filter="url(#filter0_d_0_486)">
<path id="Vector" d="M24.839 18.2858C24.839 21.4417 22.6851 24.0001 20.028 24.0001C17.371 24.0001 15.217 21.4417 15.217 18.2858C15.217 15.1299 17.371 12.5715 20.028 12.5715C22.6851 12.5715 24.839 15.1299 24.839 18.2858Z" fill="var(--fill-0, #8AB0FF)"/>
<path id="Vector_2" d="M20.0264 14.4761C19.5836 14.4761 19.2246 14.8351 19.2246 15.2779V18.0092C19.2246 18.4425 19.3776 18.8618 19.6567 19.1933L20.3995 20.0756C20.7461 20.4873 21.3801 20.4873 21.7267 20.0756C21.9985 19.7528 21.9985 19.2811 21.7267 18.9582L21.2421 18.3827C20.9748 18.0652 20.8282 17.6635 20.8282 17.2485V15.2779C20.8282 14.8351 20.4692 14.4761 20.0264 14.4761Z" fill="var(--fill-0, white)"/>
<path id="Vector_3" d="M12.0092 4V5.90476H8.80183C8.359 5.90476 8 6.33116 8 6.85714V22.0952C8 22.6212 8.359 23.0476 8.80183 23.0476H15.0197C14.1394 21.7432 13.6128 20.0875 13.6128 18.2857C13.6128 14.0778 16.4848 10.6667 20.0275 10.6667C21.5445 10.6667 22.9385 11.2921 24.0367 12.3377V6.85714C24.0367 6.33116 23.6777 5.90476 23.2348 5.90476H20.0275V4H18.4238V5.90476H13.6128V4H12.0092Z" fill="url(#paint0_linear_0_486)"/>
<path id="Intersect" d="M13.6133 4V5.9043H18.4238V4H20.0273V5.9043H23.2344C23.6772 5.9043 24.0371 6.33144 24.0371 6.85742V12.3379C22.9389 11.2923 21.5443 10.667 20.0273 10.667C16.4847 10.6671 13.6133 14.0783 13.6133 18.2861C13.6134 20.0878 14.1393 21.7436 15.0195 23.0479H8.80176C8.35909 23.0478 8.00021 22.6215 8 22.0957V6.85742C8 6.33148 8.35896 5.90436 8.80176 5.9043H12.0088V4H13.6133Z" fill="url(#paint1_linear_0_486)" fill-opacity="0.2"/>
</g>
<defs>
<filter id="filter0_d_0_486" x="0" y="0" width="32.839" height="36.0001" filterUnits="userSpaceOnUse" color-interpolation-filters="sRGB">
<feFlood flood-opacity="0" result="BackgroundImageFix"/>
<feColorMatrix in="SourceAlpha" type="matrix" values="0 0 0 0 0 0 0 0 0 0 0 0 0 0 0 0 0 0 127 0" result="hardAlpha"/>
<feOffset dy="4"/>
<feGaussianBlur stdDeviation="4"/>
<feComposite in2="hardAlpha" operator="out"/>
<feColorMatrix type="matrix" values="0 0 0 0 0.266667 0 0 0 0 0.407843 0 0 0 0 0.866667 0 0 0 0.2 0"/>
<feBlend mode="normal" in2="BackgroundImageFix" result="effect1_dropShadow_0_486"/>
<feBlend mode="normal" in="SourceGraphic" in2="effect1_dropShadow_0_486" result="shape"/>
</filter>
<linearGradient id="paint0_linear_0_486" x1="16.0183" y1="15.0945" x2="16.0183" y2="23.0476" gradientUnits="userSpaceOnUse">
<stop stop-color="#3354EF"/>
<stop offset="1" stop-color="#4B74F4"/>
</linearGradient>
<linearGradient id="paint1_linear_0_486" x1="16.0186" y1="4" x2="16.0186" y2="23.0479" gradientUnits="userSpaceOnUse">
<stop stop-color="white" stop-opacity="0"/>
<stop offset="1" stop-color="white"/>
</linearGradient>
</defs>
</svg>
