<svg preserveAspectRatio="none" width="100%" height="100%" overflow="visible" style="display: block;" viewBox="0 0 36.0434 36" fill="none" xmlns="http://www.w3.org/2000/svg">
<g id="&#229;&#146;&#168;&#232;&#175;&#162;&#233;&#135;&#143;" filter="url(#filter0_d_0_541)">
<path id="Vector" d="M17.3163 4C12.1951 4 8 7.73448 8 12.3657C8 15.1905 9.57686 17.7354 11.9765 19.2619V21.8587C11.9765 22.1956 12.1951 22.421 12.4678 22.421C12.5709 22.421 12.6864 22.3666 12.738 22.3666L15.2948 20.6173C15.9531 20.7261 16.5991 20.7909 17.2573 20.7909C22.3809 20.7909 26.5761 17.0564 26.5761 12.4227C26.635 7.73448 22.4423 4 17.3163 4Z" fill="url(#paint0_linear_0_541)"/>
<path id="Vector_2" d="M27.0386 14.5815L26.988 14.5264C26.8265 15.0934 26.6723 15.6604 26.4073 16.1749C26.2001 16.566 25.1135 18.5321 23.8125 19.5296C22.4078 20.6033 20.1913 21.0837 20.1913 21.0837C19.5456 21.2595 18.9119 21.3147 18.2662 21.3698C19.2806 22.3463 20.7213 22.9159 22.3283 22.9159C22.7596 22.9159 23.1282 22.9159 23.5571 22.8057L25.1039 23.9449C25.1545 23.9449 25.2051 24 25.2677 24C25.4315 24 25.5857 23.8898 25.5857 23.6614V22.005C27.0795 21.0312 28.0432 19.4299 28.0432 17.5976C28.0529 16.4111 27.6843 15.3821 27.0386 14.5815Z" fill="var(--fill-0, #8AB0FF)"/>
<path id="Vector_3" d="M13.4696 13.0975C12.8118 13.1003 12.2763 12.5595 12.2681 11.8848C12.2681 11.2101 12.8118 10.672 13.4696 10.672C14.1247 10.6692 14.6602 11.2101 14.6711 11.8848C14.6602 12.5567 14.1247 13.0975 13.4696 13.0975ZM18.3657 12.9804C18.0014 13.2258 17.5284 13.2258 17.1642 12.9804C16.8054 12.7351 16.5635 12.3169 16.5635 11.8848C16.5635 11.2101 17.1071 10.672 17.7649 10.672C18.4228 10.6692 18.9583 11.2101 18.9664 11.8848C18.9664 12.3727 18.7245 12.7351 18.3657 12.9804ZM21.8673 13.0975C21.2095 13.1003 20.674 12.5595 20.6658 11.8848C20.6658 11.2101 21.2095 10.672 21.8673 10.672C22.5224 10.6692 23.0606 11.2101 23.0688 11.8848C23.0579 12.5567 22.5224 13.0975 21.8673 13.0975Z" fill="var(--fill-0, white)"/>
</g>
<defs>
<filter id="filter0_d_0_541" x="0" y="0" width="36.0434" height="36" filterUnits="userSpaceOnUse" color-interpolation-filters="sRGB">
<feFlood flood-opacity="0" result="BackgroundImageFix"/>
<feColorMatrix in="SourceAlpha" type="matrix" values="0 0 0 0 0 0 0 0 0 0 0 0 0 0 0 0 0 0 127 0" result="hardAlpha"/>
<feOffset dy="4"/>
<feGaussianBlur stdDeviation="4"/>
<feComposite in2="hardAlpha" operator="out"/>
<feColorMatrix type="matrix" values="0 0 0 0 0.266667 0 0 0 0 0.407843 0 0 0 0 0.866667 0 0 0 0.2 0"/>
<feBlend mode="normal" in2="BackgroundImageFix" result="effect1_dropShadow_0_541"/>
<feBlend mode="normal" in="SourceGraphic" in2="effect1_dropShadow_0_541" result="shape"/>
</filter>
<linearGradient id="paint0_linear_0_541" x1="17.2883" y1="4.07511" x2="17.2883" y2="22.421" gradientUnits="userSpaceOnUse">
<stop stop-color="#3354EF"/>
<stop offset="1" stop-color="#799AFF"/>
</linearGradient>
</defs>
</svg>
