<svg preserveAspectRatio="none" width="100%" height="100%" overflow="visible" style="display: block;" viewBox="0 0 35.9997 36.0001" fill="none" xmlns="http://www.w3.org/2000/svg">
<g id="&#229;&#185;&#179;&#229;&#157;&#135;&#230;&#151;&#182;&#233;&#149;&#191;" filter="url(#filter0_d_0_529)">
<path id="Vector" d="M27.9997 18.2858C27.9997 21.4417 25.4413 24.0001 22.2855 24.0001C19.1296 24.0001 16.5713 21.4417 16.5713 18.2858C16.5713 15.1299 19.1296 12.5715 22.2855 12.5715C25.4413 12.5715 27.9997 15.1299 27.9997 18.2858Z" fill="var(--fill-0, #8AB0FF)"/>
<path id="Vector_2" d="M22.2854 14.476C21.7594 14.476 21.333 14.9024 21.333 15.4284V17.8516C21.333 18.382 21.5437 18.8907 21.9188 19.2658L22.8433 20.1903C23.2152 20.5622 23.8182 20.5622 24.1901 20.1903C24.562 19.8184 24.562 19.2154 24.1901 18.8435L23.7139 18.3673C23.409 18.0624 23.2377 17.6488 23.2377 17.2176V15.4284C23.2377 14.9024 22.8113 14.476 22.2854 14.476Z" fill="var(--fill-0, white)"/>
<path id="Vector_3" d="M12.7618 4V5.90476H8.95237C8.42639 5.90476 8 6.33116 8 6.85714V22.0952C8 22.6212 8.42639 23.0476 8.95237 23.0476H16.3376C15.292 21.7432 14.6666 20.0875 14.6666 18.2857C14.6666 14.0778 18.0776 10.6667 22.2855 10.6667C24.0873 10.6667 25.743 11.2921 27.0473 12.3377V6.85714C27.0473 6.33116 26.6209 5.90476 26.095 5.90476H22.2855V4H20.3808V5.90476H14.6666V4H12.7618Z" fill="url(#paint0_linear_0_529)"/>
<path id="Intersect" d="M14.666 4V5.9043H20.3809V4H22.2852V5.9043H26.0947C26.6207 5.9043 27.0469 6.33144 27.0469 6.85742V12.3379C25.7425 11.2923 24.0869 10.667 22.2852 10.667C18.0774 10.6671 14.666 14.0783 14.666 18.2861C14.6661 20.0878 15.2924 21.7436 16.3379 23.0479H8.95215C8.42637 23.0478 8.00025 22.6215 8 22.0957V6.85742C8 6.33147 8.42621 5.90434 8.95215 5.9043H12.7617V4H14.666Z" fill="url(#paint1_linear_0_529)" fill-opacity="0.2"/>
</g>
<defs>
<filter id="filter0_d_0_529" x="0" y="0" width="35.9997" height="36.0001" filterUnits="userSpaceOnUse" color-interpolation-filters="sRGB">
<feFlood flood-opacity="0" result="BackgroundImageFix"/>
<feColorMatrix in="SourceAlpha" type="matrix" values="0 0 0 0 0 0 0 0 0 0 0 0 0 0 0 0 0 0 127 0" result="hardAlpha"/>
<feOffset dy="4"/>
<feGaussianBlur stdDeviation="4"/>
<feComposite in2="hardAlpha" operator="out"/>
<feColorMatrix type="matrix" values="0 0 0 0 0.266667 0 0 0 0 0.407843 0 0 0 0 0.866667 0 0 0 0.2 0"/>
<feBlend mode="normal" in2="BackgroundImageFix" result="effect1_dropShadow_0_529"/>
<feBlend mode="normal" in="SourceGraphic" in2="effect1_dropShadow_0_529" result="shape"/>
</filter>
<linearGradient id="paint0_linear_0_529" x1="17.5237" y1="15.0945" x2="17.5237" y2="23.0476" gradientUnits="userSpaceOnUse">
<stop stop-color="#3354EF"/>
<stop offset="1" stop-color="#4B74F4"/>
</linearGradient>
<linearGradient id="paint1_linear_0_529" x1="17.5234" y1="4" x2="17.5234" y2="23.0479" gradientUnits="userSpaceOnUse">
<stop stop-color="white" stop-opacity="0"/>
<stop offset="1" stop-color="white"/>
</linearGradient>
</defs>
</svg>
