<svg preserveAspectRatio="none" width="100%" height="100%" overflow="visible" style="display: block;" viewBox="0 0 36.0011 36.0001" fill="none" xmlns="http://www.w3.org/2000/svg">
<g id="&#229;&#185;&#179;&#229;&#157;&#135;&#230;&#151;&#182;&#233;&#149;&#191;" filter="url(#filter0_d_0_614)">
<path id="Vector" d="M28.0011 18.2858C28.0011 21.4417 25.4427 24.0001 22.2867 24.0001C19.1307 24.0001 16.5723 21.4417 16.5723 18.2858C16.5723 15.1299 19.1307 12.5715 22.2867 12.5715C25.4427 12.5715 28.0011 15.1299 28.0011 18.2858Z" fill="var(--fill-0, #8AB0FF)"/>
<path id="Vector_2" d="M22.2844 14.476C21.7584 14.476 21.332 14.9024 21.332 15.4284V17.8516C21.332 18.382 21.5428 18.8907 21.9178 19.2658L22.8424 20.1903C23.2143 20.5622 23.8173 20.5622 24.1892 20.1903C24.5612 19.8184 24.5612 19.2154 24.1892 18.8434L23.713 18.3673C23.4081 18.0624 23.2368 17.6488 23.2368 17.2176V15.4284C23.2368 14.9024 22.8104 14.476 22.2844 14.476Z" fill="var(--fill-0, white)"/>
<path id="Vector_3" d="M12.762 4V5.90476H8.9524C8.42641 5.90476 8 6.33116 8 6.85714V22.0952C8 22.6212 8.42641 23.0476 8.9524 23.0476H16.3379C15.2923 21.7432 14.6668 20.0875 14.6668 18.2857C14.6668 14.0778 18.078 10.6667 22.286 10.6667C24.0879 10.6667 25.7436 11.2921 27.048 12.3377V6.85714C27.048 6.33116 26.6217 5.90476 26.0956 5.90476H22.286V4H20.3812V5.90476H14.6668V4H12.762Z" fill="url(#paint0_linear_0_614)"/>
<path id="Intersect" d="M14.667 4V5.9043H20.3809V4H22.2861V5.9043H26.0957C26.6217 5.90433 27.0479 6.33146 27.0479 6.85742V12.3379C25.7435 11.2923 24.0879 10.667 22.2861 10.667C18.0781 10.667 14.667 14.0782 14.667 18.2861C14.6671 20.0878 15.2923 21.7436 16.3379 23.0479H8.95215C8.42643 23.0477 8.00025 22.6214 8 22.0957V6.85742C8 6.33153 8.42627 5.90443 8.95215 5.9043H12.7617V4H14.667Z" fill="url(#paint1_linear_0_614)" fill-opacity="0.2"/>
</g>
<defs>
<filter id="filter0_d_0_614" x="0" y="0" width="36.0011" height="36.0001" filterUnits="userSpaceOnUse" color-interpolation-filters="sRGB">
<feFlood flood-opacity="0" result="BackgroundImageFix"/>
<feColorMatrix in="SourceAlpha" type="matrix" values="0 0 0 0 0 0 0 0 0 0 0 0 0 0 0 0 0 0 127 0" result="hardAlpha"/>
<feOffset dy="4"/>
<feGaussianBlur stdDeviation="4"/>
<feComposite in2="hardAlpha" operator="out"/>
<feColorMatrix type="matrix" values="0 0 0 0 0.266667 0 0 0 0 0.407843 0 0 0 0 0.866667 0 0 0 0.2 0"/>
<feBlend mode="normal" in2="BackgroundImageFix" result="effect1_dropShadow_0_614"/>
<feBlend mode="normal" in="SourceGraphic" in2="effect1_dropShadow_0_614" result="shape"/>
</filter>
<linearGradient id="paint0_linear_0_614" x1="17.524" y1="15.0945" x2="17.524" y2="23.0476" gradientUnits="userSpaceOnUse">
<stop stop-color="#3354EF"/>
<stop offset="1" stop-color="#4B74F4"/>
</linearGradient>
<linearGradient id="paint1_linear_0_614" x1="17.5239" y1="4" x2="17.5239" y2="23.0479" gradientUnits="userSpaceOnUse">
<stop stop-color="white" stop-opacity="0"/>
<stop offset="1" stop-color="white"/>
</linearGradient>
</defs>
</svg>
