<svg preserveAspectRatio="none" width="100%" height="100%" overflow="visible" style="display: block;" viewBox="0 0 36.0002 36" fill="none" xmlns="http://www.w3.org/2000/svg">
<g id="&#229;&#146;&#168;&#232;&#175;&#162;&#233;&#135;&#143;" filter="url(#filter0_d_0_564)">
<path id="Vector" d="M17.2961 4C12.1861 4 8 7.73448 8 12.3657C8 15.1905 9.57346 17.7354 11.968 19.2619V21.8587C11.968 22.1956 12.1861 22.421 12.4581 22.421C12.5611 22.421 12.6763 22.3666 12.7277 22.3666L15.2791 20.6173C15.9359 20.7261 16.5805 20.7909 17.2373 20.7909C22.3498 20.7909 26.5359 17.0564 26.5359 12.4227C26.5947 7.73448 22.4111 4 17.2961 4Z" fill="url(#paint0_linear_0_564)"/>
<path id="Vector_2" d="M26.9975 14.5815L26.947 14.5264C26.7859 15.0934 26.6321 15.6604 26.3676 16.1749C26.1609 16.566 25.0766 18.5321 23.7784 19.5296C22.3768 20.6033 20.165 21.0837 20.165 21.0837C19.5207 21.2595 18.8884 21.3147 18.2441 21.3698C19.2563 22.3463 20.6939 22.9159 22.2975 22.9159C22.7278 22.9159 23.0956 22.9159 23.5236 22.8057L25.067 23.9449C25.1175 23.9449 25.168 24 25.2305 24C25.394 24 25.5478 23.8898 25.5478 23.6614V22.005C27.0384 21.0312 28 19.4299 28 17.5976C28.0096 16.4111 27.6418 15.3821 26.9975 14.5815Z" fill="var(--fill-0, #8AB0FF)"/>
<path id="Vector_3" d="M13.4541 13.0965C12.797 13.0993 12.2621 12.559 12.2539 11.885C12.2539 11.2111 12.797 10.6736 13.4541 10.6736C14.1085 10.6708 14.6434 11.2111 14.6543 11.885C14.6434 12.5562 14.1085 13.0965 13.4541 13.0965ZM18.3449 12.9795C17.981 13.2246 17.5085 13.2246 17.1447 12.9795C16.7863 12.7345 16.5446 12.3167 16.5446 11.885C16.5446 11.2111 17.0877 10.6736 17.7448 10.6736C18.4019 10.6708 18.9368 11.2111 18.9449 11.885C18.9449 12.3724 18.7033 12.7345 18.3449 12.9795ZM21.8427 13.0965C21.1856 13.0993 20.6507 12.559 20.6425 11.885C20.6425 11.2111 21.1856 10.6736 21.8427 10.6736C22.4971 10.6708 23.0347 11.2111 23.0429 11.885C23.032 12.5562 22.4971 13.0965 21.8427 13.0965Z" fill="var(--fill-0, white)"/>
</g>
<defs>
<filter id="filter0_d_0_564" x="0" y="0" width="36.0002" height="36" filterUnits="userSpaceOnUse" color-interpolation-filters="sRGB">
<feFlood flood-opacity="0" result="BackgroundImageFix"/>
<feColorMatrix in="SourceAlpha" type="matrix" values="0 0 0 0 0 0 0 0 0 0 0 0 0 0 0 0 0 0 127 0" result="hardAlpha"/>
<feOffset dy="4"/>
<feGaussianBlur stdDeviation="4"/>
<feComposite in2="hardAlpha" operator="out"/>
<feColorMatrix type="matrix" values="0 0 0 0 0.266667 0 0 0 0 0.407843 0 0 0 0 0.866667 0 0 0 0.2 0"/>
<feBlend mode="normal" in2="BackgroundImageFix" result="effect1_dropShadow_0_564"/>
<feBlend mode="normal" in="SourceGraphic" in2="effect1_dropShadow_0_564" result="shape"/>
</filter>
<linearGradient id="paint0_linear_0_564" x1="17.2683" y1="4.07511" x2="17.2683" y2="22.421" gradientUnits="userSpaceOnUse">
<stop stop-color="#3354EF"/>
<stop offset="1" stop-color="#799AFF"/>
</linearGradient>
</defs>
</svg>
