<?xml version="1.0" encoding="utf-8"?>
<!-- Generator: Adobe Illustrator 22.1.0, SVG Export Plug-In . SVG Version: 6.00 Build 0)  -->
<svg version="1.1" id="图层_1" xmlns="http://www.w3.org/2000/svg" xmlns:xlink="http://www.w3.org/1999/xlink" x="0px" y="0px"
	 viewBox="0 0 341 241" style="enable-background:new 0 0 341 241;" xml:space="preserve">
<style type="text/css">
	.st0{fill:url(#SVGID_1_);}
	.st1{fill:#FFCA98;}
	.st2{opacity:0.7;fill:#E8A370;}
	.st3{fill:#F2F2F2;}
	.st4{clip-path:url(#SVGID_3_);fill:#EAEAEA;}
	.st5{clip-path:url(#SVGID_5_);fill:#FFFFFF;}
	.st6{opacity:0.5;}
	.st7{clip-path:url(#SVGID_7_);fill:#D3D3D3;}
	.st8{clip-path:url(#SVGID_9_);fill:#FFFFFF;}
	.st9{clip-path:url(#SVGID_11_);fill:#FFFFFF;}
	.st10{clip-path:url(#SVGID_13_);fill:#A8A8A8;}
	.st11{clip-path:url(#SVGID_15_);fill:#FFFFFF;}
	.st12{clip-path:url(#SVGID_17_);fill:#E4E6EF;}
	.st13{clip-path:url(#SVGID_19_);fill:#E4E6EF;}
	.st14{clip-path:url(#SVGID_21_);fill:#A8A8A8;}
	.st15{clip-path:url(#SVGID_23_);fill:#FF7946;}
	.st16{clip-path:url(#SVGID_25_);fill:#FFC53D;}
	.st17{clip-path:url(#SVGID_27_);fill:#BAE637;}
	.st18{clip-path:url(#SVGID_29_);fill:#FFFFFF;}
	.st19{clip-path:url(#SVGID_31_);fill:#D3D3D3;}
	.st20{clip-path:url(#SVGID_33_);fill:#D3D3D3;}
	.st21{clip-path:url(#SVGID_35_);fill:#D3D3D3;}
	.st22{clip-path:url(#SVGID_37_);fill:#FFFFFF;}
	.st23{clip-path:url(#SVGID_39_);fill:#A8A8A8;}
	.st24{clip-path:url(#SVGID_41_);fill:#A8A8A8;}
	.st25{fill:#532442;}
	.st26{fill:#D63E39;}
	.st27{fill:#186ED9;}
	.st28{fill:#FFFFFF;}
	.st29{opacity:0.3;fill:#000333;}
</style>
<linearGradient id="SVGID_1_" gradientUnits="userSpaceOnUse" x1="139.5472" y1="26.0672" x2="139.5472" y2="216.2313">
	<stop  offset="0" style="stop-color:#F2F2F2"/>
	<stop  offset="1" style="stop-color:#F2F2F2;stop-opacity:0"/>
</linearGradient>
<path class="st0" d="M53.3,216h200.3c7.1-21.1,4.6-47.5,14-71.6c9.2-23.8,8-63.1-14.7-89.8C233,31.3,194.5,19,161,18.2
	c-72.6-1.8-20.4,96.1-61.5,79C43,73.8-3.3,119.8,7.9,148.1C15.7,167.9,60.7,166.4,53.3,216z"/>
<g>
	<path class="st1" d="M147.4,129c-4.2,0.7-8.2-2.1-8.9-6.3l-3.7-21.6c-0.7-4.2,2.1-8.2,6.3-8.9c4.2-0.7,8.2,2.1,8.9,6.3l3.7,21.6
		C154.4,124.3,151.6,128.3,147.4,129z"/>
</g>
<path class="st2" d="M140.5,88.9c-4.2,0.7-7,4.7-6.3,8.9l1.8,10.6c2.6,0.4,5.2,0.4,7.8,0c2.6-0.5,5.1-1.4,7.4-2.6l-1.8-10.6
	C148.6,91,144.7,88.2,140.5,88.9z"/>
<path class="st1" d="M165.9,80.2c0.3-2.1,0.4-4.1,0.2-6.2c0-0.2,0-0.4,0-0.5c-1-10.7-11.4-18.4-23.2-17.2c-1.8,0.2-3.5,0.5-5.2,1.1
	c-5.1,1.7-9.4,5.2-11.9,9.5c-1.3,2.2-2,4.6-2.4,7c-0.5,3.1,0,6.1,0.3,9.3c0.3,2.9,0.3,5.9,0.9,8.7c1,4.9,4.3,9.6,9.1,12.1
	c5.4,2.8,11.9,0.7,16.8-2.1c4.6-2.6,8.7-6.5,11.4-10.8c2.2,0,4.4-2.2,5-5.3C167.3,83.6,166.9,81.5,165.9,80.2z"/>
<rect x="5.1" y="213.9" class="st3" width="330" height="2"/>
<g>
	<g>
		<defs>
			<path id="SVGID_2_" d="M210.1,43.9h100.7c1.7,0,3.1,1.4,3.1,3.2v73.7c0,1.8-1.4,3.2-3.1,3.2H210.1c-1.7,0-3.1-1.4-3.1-3.2V47.1
				C207,45.3,208.4,43.9,210.1,43.9z"/>
		</defs>
		<use xlink:href="#SVGID_2_"  style="overflow:visible;fill:#EAEAEA;"/>
		<clipPath id="SVGID_3_">
			<use xlink:href="#SVGID_2_"  style="overflow:visible;"/>
		</clipPath>
		<rect x="206.4" y="43.3" class="st4" width="108.1" height="81.3"/>
	</g>
	<g>
		<defs>
			<path id="SVGID_4_" d="M237.8,115v-55c0-0.6,0.5-1.1,1.1-1.1h65c0.6,0,1.1,0.5,1.1,1.1v55.2c0,0.5-0.4,0.9-0.9,0.9h-65.2
				C238.3,116.1,237.8,115.6,237.8,115z"/>
		</defs>
		<clipPath id="SVGID_5_">
			<use xlink:href="#SVGID_4_"  style="overflow:visible;"/>
		</clipPath>
		<rect x="237.2" y="58.2" class="st5" width="68.4" height="58.4"/>
	</g>
	<g class="st6">
		<defs>
			<path id="SVGID_6_" class="st6" d="M244.4,102.2c-0.5,0-0.9-0.4-0.9-0.9V65.5c0-0.5,0.4-0.9,0.9-0.9h54.2c0.5,0,0.9,0.4,0.9,0.9
				v35.8c0,0.5-0.4,0.9-0.9,0.9H244.4z"/>
		</defs>
		<use xlink:href="#SVGID_6_"  style="overflow:visible;fill-rule:evenodd;clip-rule:evenodd;fill:#D3D3D3;"/>
		<clipPath id="SVGID_7_">
			<use xlink:href="#SVGID_6_"  style="overflow:visible;"/>
		</clipPath>
		<rect x="243" y="64.1" class="st7" width="57.2" height="38.7"/>
	</g>
	<g>
		<defs>
			<path id="SVGID_8_" d="M251.2,69.8h-3.8c-0.3,0-0.5-0.2-0.5-0.5c0-0.3,0.2-0.5,0.5-0.5h3.8c0.3,0,0.5,0.2,0.5,0.5
				C251.8,69.6,251.5,69.8,251.2,69.8"/>
		</defs>
		<clipPath id="SVGID_9_">
			<use xlink:href="#SVGID_8_"  style="overflow:visible;"/>
		</clipPath>
		<rect x="246.3" y="68.2" class="st8" width="6.1" height="2.3"/>
	</g>
	<g>
		<defs>
			<path id="SVGID_10_" d="M251.3,72.4h-3.8c-0.3,0-0.5-0.2-0.5-0.5c0-0.3,0.2-0.5,0.5-0.5h3.8c0.3,0,0.5,0.2,0.5,0.5
				C251.8,72.2,251.6,72.4,251.3,72.4"/>
		</defs>
		<clipPath id="SVGID_11_">
			<use xlink:href="#SVGID_10_"  style="overflow:visible;"/>
		</clipPath>
		<rect x="246.3" y="70.7" class="st9" width="6.1" height="2.3"/>
	</g>
	<g class="st6">
		<defs>
			<path id="SVGID_12_" class="st6" d="M243.6,92.3c5.8,0,4.3-7.4,13.1-7.4c8.8,0,8.4,6.6,15.3,6.6c7,0,6.5-18.9,13.2-18.9
				c7.1,0,5.5,17.2,14.3,17.2v11.6c0,0.5-0.4,0.9-0.9,0.9l-54.1,0c-0.5,0-0.9-0.4-0.9-0.9V92.3z"/>
		</defs>
		<use xlink:href="#SVGID_12_"  style="overflow:visible;fill-rule:evenodd;clip-rule:evenodd;fill:#A8A8A8;"/>
		<clipPath id="SVGID_13_">
			<use xlink:href="#SVGID_12_"  style="overflow:visible;"/>
		</clipPath>
		<rect x="243" y="71.9" class="st10" width="57" height="30.9"/>
	</g>
	<g>
		<defs>
			<path id="SVGID_14_" d="M256.6,74.6c1,0,1.9,0.6,2.6,1.8c0.6,0.9,1,2.1,1.6,4l0.1,0.3c0.1,0.5,1,3.2,1.3,4.2l0,0.1
				c1,3.1,2,5.2,3.3,6.8c1.6,2,3.5,3,6,3c1.5,0,2.9-0.4,4.2-1.2l0.1-0.1c1-0.6,1.9-1.4,3.1-2.6l0.5-0.5l0.4-0.4
				c0.3-0.3,0.5-0.5,0.8-0.8l0,0c1.8-1.8,3.2-2.6,4.8-2.6c1.7,0,3.3,0.9,5.4,2.8l0.1,0.1c0.1,0.1,0.2,0.2,0.4,0.3l1.1,1.1
				c1.4,1.3,2.2,2,3.2,2.7c1.2,0.8,2.4,1.2,3.7,1.2l0.1,0v0.7c-1.4,0-2.8-0.5-4.1-1.3l-0.1-0.1c-1-0.6-1.9-1.4-3.3-2.7l-0.8-0.8
				c-0.3-0.2-0.5-0.5-0.7-0.6l0,0c-2-1.8-3.4-2.6-4.9-2.6c-1.4,0-2.7,0.7-4.3,2.3l-0.1,0.1c-0.2,0.2-0.4,0.4-0.6,0.6l-1,1l-0.1,0.1
				c-1.3,1.3-2.2,2.1-3.2,2.7c-1.4,0.9-2.9,1.3-4.6,1.3c-2.7,0-4.9-1.1-6.6-3.3c-1.3-1.7-2.4-3.9-3.4-6.9l-0.1-0.3
				c-0.4-1.1-1.3-4.1-1.3-4.1l-0.1-0.2c-1.2-3.8-2.2-5.3-3.6-5.3c-0.9,0-1.7,0.6-2.4,1.9l0,0.1c-0.6,1.1-1.1,2.5-1.8,4.8l-0.8,2.7
				c0,0.1-0.1,0.2-0.1,0.3l-0.1,0.3c-0.9,3.1-1.7,5.1-2.7,6.7c-1.4,2.1-3.1,3.3-5.2,3.3l-0.1,0v-0.7c1.9,0,3.4-1,4.7-3l0.1-0.1
				c1-1.6,1.7-3.5,2.6-6.5l0.1-0.3l0.8-2.6c0.7-2.6,1.3-4,1.9-5.2C254.4,75.4,255.4,74.6,256.6,74.6z"/>
		</defs>
		<clipPath id="SVGID_15_">
			<use xlink:href="#SVGID_14_"  style="overflow:visible;"/>
		</clipPath>
		<rect x="242.8" y="74" class="st11" width="57.2" height="22.1"/>
	</g>
	<g>
		<defs>
			<path id="SVGID_16_" d="M298.5,107c0.2,0,0.4,0.2,0.4,0.4c0,0.2-0.2,0.4-0.4,0.4l0,0h-54.3c-0.2,0-0.4-0.2-0.4-0.4
				c0-0.2,0.2-0.4,0.4-0.4l0,0H298.5z"/>
		</defs>
		<clipPath id="SVGID_17_">
			<use xlink:href="#SVGID_16_"  style="overflow:visible;"/>
		</clipPath>
		<rect x="243.2" y="106.4" class="st12" width="56.3" height="2"/>
	</g>
	<g>
		<defs>
			<path id="SVGID_18_" d="M289.8,110.7c0.2,0,0.4,0.2,0.4,0.4c0,0.2-0.2,0.4-0.4,0.4l0,0h-45.6c-0.2,0-0.4-0.2-0.4-0.4
				c0-0.2,0.2-0.4,0.4-0.4l0,0H289.8z"/>
		</defs>
		<clipPath id="SVGID_19_">
			<use xlink:href="#SVGID_18_"  style="overflow:visible;"/>
		</clipPath>
		<rect x="243.2" y="110.1" class="st13" width="47.6" height="2"/>
	</g>
	<g>
		<defs>
			<path id="SVGID_20_" d="M209.8,40.2H311c1.6,0,2.9,1.3,2.9,2.9v8.5H207v-8.5C207,41.5,208.2,40.2,209.8,40.2z"/>
		</defs>
		<use xlink:href="#SVGID_20_"  style="overflow:visible;fill:#A8A8A8;"/>
		<clipPath id="SVGID_21_">
			<use xlink:href="#SVGID_20_"  style="overflow:visible;"/>
		</clipPath>
		<rect x="206.4" y="39.6" class="st14" width="108" height="12.6"/>
	</g>
	<g>
		<defs>
			<circle id="SVGID_22_" cx="213.1" cy="45.9" r="2"/>
		</defs>
		<clipPath id="SVGID_23_">
			<use xlink:href="#SVGID_22_"  style="overflow:visible;"/>
		</clipPath>
		<rect x="210.5" y="43.3" class="st15" width="5.3" height="5.3"/>
	</g>
	<g>
		<defs>
			<circle id="SVGID_24_" cx="220.7" cy="45.9" r="2"/>
		</defs>
		<clipPath id="SVGID_25_">
			<use xlink:href="#SVGID_24_"  style="overflow:visible;"/>
		</clipPath>
		<rect x="218.1" y="43.3" class="st16" width="5.3" height="5.3"/>
	</g>
	<g>
		<defs>
			<circle id="SVGID_26_" cx="228.4" cy="45.9" r="2"/>
		</defs>
		<clipPath id="SVGID_27_">
			<use xlink:href="#SVGID_26_"  style="overflow:visible;"/>
		</clipPath>
		<rect x="225.7" y="43.3" class="st17" width="5.3" height="5.3"/>
	</g>
	<g>
		<defs>
			<polygon id="SVGID_28_" points="242.5,86.2 241.1,85.2 242.5,84.3 243.8,85.2 			"/>
		</defs>
		<clipPath id="SVGID_29_">
			<use xlink:href="#SVGID_28_"  style="overflow:visible;"/>
		</clipPath>
		<rect x="240.6" y="83.7" class="st18" width="3.8" height="3.2"/>
	</g>
	<g>
		<defs>
			<path id="SVGID_30_" d="M215.4,81.1H229c0.5,0,0.8,0.4,0.8,0.9v2.1c0,0.5-0.4,0.9-0.8,0.9h-13.6c-0.5,0-0.8-0.4-0.8-0.9V82
				C214.6,81.5,215,81.1,215.4,81.1z"/>
		</defs>
		<use xlink:href="#SVGID_30_"  style="overflow:visible;fill:#D3D3D3;"/>
		<clipPath id="SVGID_31_">
			<use xlink:href="#SVGID_30_"  style="overflow:visible;"/>
		</clipPath>
		<rect x="214" y="80.5" class="st19" width="16.5" height="5.1"/>
	</g>
	<g>
		<defs>
			<path id="SVGID_32_" d="M215.4,88.5H229c0.5,0,0.8,0.4,0.8,0.9v2c0,0.5-0.4,0.9-0.8,0.9h-13.6c-0.5,0-0.8-0.4-0.8-0.9v-2
				C214.6,88.9,214.9,88.5,215.4,88.5z"/>
		</defs>
		<use xlink:href="#SVGID_32_"  style="overflow:visible;fill:#D3D3D3;"/>
		<clipPath id="SVGID_33_">
			<use xlink:href="#SVGID_32_"  style="overflow:visible;"/>
		</clipPath>
		<rect x="214" y="87.9" class="st20" width="16.5" height="4.9"/>
	</g>
	<g>
		<defs>
			<path id="SVGID_34_" d="M215.4,95.8H229c0.5,0,0.8,0.4,0.8,0.9v2c0,0.5-0.4,0.9-0.8,0.9h-13.6c-0.5,0-0.8-0.4-0.8-0.9v-2
				C214.6,96.2,214.9,95.8,215.4,95.8z"/>
		</defs>
		<use xlink:href="#SVGID_34_"  style="overflow:visible;fill:#D3D3D3;"/>
		<clipPath id="SVGID_35_">
			<use xlink:href="#SVGID_34_"  style="overflow:visible;"/>
		</clipPath>
		<rect x="214" y="95.2" class="st21" width="16.5" height="4.9"/>
	</g>
	<g>
		<defs>
			<ellipse id="SVGID_36_" cx="222.2" cy="67.2" rx="7.6" ry="7.6"/>
		</defs>
		<clipPath id="SVGID_37_">
			<use xlink:href="#SVGID_36_"  style="overflow:visible;"/>
		</clipPath>
		<rect x="214" y="58.9" class="st22" width="16.4" height="16.5"/>
	</g>
	<g>
		<defs>
			<path id="SVGID_38_" d="M222.2,74.8c2.2,0,4.3-1,5.7-2.7c-1.1-2.1-3.3-3.4-5.7-3.4s-4.6,1.3-5.7,3.4
				C217.9,73.8,220,74.8,222.2,74.8z"/>
		</defs>
		<use xlink:href="#SVGID_38_"  style="overflow:visible;fill:#A8A8A8;"/>
		<clipPath id="SVGID_39_">
			<use xlink:href="#SVGID_38_"  style="overflow:visible;"/>
		</clipPath>
		<rect x="215.9" y="68.1" class="st23" width="12.6" height="7.3"/>
	</g>
	<g>
		<defs>
			<ellipse id="SVGID_40_" cx="222.3" cy="66.1" rx="2.9" ry="2.9"/>
		</defs>
		<use xlink:href="#SVGID_40_"  style="overflow:visible;fill:#A8A8A8;"/>
		<clipPath id="SVGID_41_">
			<use xlink:href="#SVGID_40_"  style="overflow:visible;"/>
		</clipPath>
		<rect x="218.8" y="62.7" class="st24" width="6.9" height="6.9"/>
	</g>
</g>
<path d="M179.7,213.7c0,0-3.7-14.5-6.8-20.6c-0.7-1.3-1.3-2.7-1.9-4.1c-7-2.8-15.1-4.2-23.8-4c-6.4,0.2-12.4,1.4-17.9,3.2
	c-0.6,2.1-1.3,4.3-2.2,6.3c-2.8,6.3-5.6,19.1-5.6,19.1H179.7z"/>
<path class="st1" d="M122.7,122.4c-6.3-0.7-8,5.5-8,5.5s-4.7,23.9-7.5,37.9l-24.8-28.7l0.1-0.1c0,0-8.2-8.9-11.3-9.9
	c-3.1-1-9-2.8-9.5-0.8c0,0-0.1,1.3,3.2,2.5c0,0,4.6,1.7,2.3,2.9s-14.4-2-13.5,1.8c0.8,3.5,16.2,6.9,22.9,8.7l30.1,39
	c0,0,2.5,3.1,6.4,0.1c1.7-1.3,2.3-2.6,2.5-3.7c0.1-0.2,0.2-0.4,0.2-0.6c1.2-4.5,11.9-46,11.9-46S129,123.1,122.7,122.4z"/>
<path class="st1" d="M239.5,120.5c0-3.9-11.1,2-13.6,1.4c-2.5-0.6,1.6-3.3,1.6-3.3c3-1.9,2.6-3.2,2.6-3.2c-1-1.8-6.2,1.3-9.1,3
	c-2.4,1.5-7.2,9.5-8.4,11.7l-21.2,32.2c-4.6-13-13.8-38.5-13.8-38.5s-2.7-5.9-8.7-4.3s-3.6,9.2-3.6,9.2s16.8,39.4,18.6,43.7
	c0.2,0.5,0.5,0.9,0.8,1.3c0,1.2,0.5,3,3.1,4.5c4.3,2.5,6.4-0.9,6.4-0.9l24.9-42.7C224.7,131.2,239.6,124.1,239.5,120.5z"/>
<path class="st25" d="M128.9,84.3c-0.7,0.1-1.2,0.5-1.2,1l0.3,3.1c0,0.5,0.6,0.8,1.3,0.8l0,0c0.7-0.1,1.2-0.5,1.2-1l-0.3-3.1
	C130.1,84.6,129.5,84.2,128.9,84.3z"/>
<path class="st25" d="M145.8,82.7c-0.7,0.1-1.2,0.5-1.2,1l0.3,3.1c0,0.5,0.6,0.8,1.3,0.8l0,0c0.7-0.1,1.2-0.5,1.2-1l-0.3-3.1
	C147.1,82.9,146.5,82.6,145.8,82.7z"/>
<path class="st26" d="M137.3,92.2c-3.1,0.2-4.3,1-4.4,1.1c-0.4,0.3-0.5,0.8-0.2,1.2c0.2,0.3,0.5,0.4,0.8,0.4c0.2,0,0.3-0.1,0.5-0.2
	c0,0,1-0.6,3.5-0.8c2.5-0.1,3.5,0.4,3.5,0.4c0.2,0.1,0.3,0.1,0.5,0.1c0.3,0,0.6-0.2,0.7-0.4c0.2-0.4,0.1-1-0.3-1.2
	C141.7,92.7,140.4,92,137.3,92.2z"/>
<path d="M122.9,78.3c0,0-5.3-15.2,2.3-20.5s11.3-7,11.3-7s10.7-8.2,20.5,3.9c0,0,5.6-3.6,9.1,5s3.6,14.8,0.6,23.6
	c0,0-3.5-6.6-7.5-1.6c0,0,0-8.4-0.5-10.8c-0.4-2.4-1.6-8.3-4.8-9.4c0,0-6.8,4.5-14.1,2.2C132.5,61.5,125.6,70.9,122.9,78.3z"/>
<path class="st27" d="M171.9,144.4c1.1,2.6,2.2,5.3,3.4,7.9l10.9-4.6c-4.2-11.8-8.6-24-8.6-24s-1.2-4.7-10.2-5.9
	c-0.3,0-0.5-0.1-0.7-0.1c-1-0.2-1.9-0.4-2.7-0.6c-4-0.5-7.4-0.9-10.6-1.1l-0.8-4.6l-15.7,2.2l0.6,3.4c-4.5,0.8-9.8,2.2-16.7,4.3
	c-1.3,0.3-2.4,1-3.3,1.6c-0.4,0.2-0.7,0.5-1,0.8c-0.1,0.1-0.1,0.1-0.2,0.2c-1.1,1-1.6,2.5-1.6,4.2c-0.5,2.5-2.8,14.4-5.1,25.6
	l11.9,1c0.4-1.6,0.8-3.2,1.2-4.8c0.9,1.9,1.7,3.6,2.4,5.3c4.3,10.4,2.1,39.1,2.1,39.1l46.1-0.7c0,0-6.8-33.9-3.8-42.1
	C170.2,149.7,171.1,147.2,171.9,144.4z"/>
<circle class="st27" cx="308.7" cy="50.3" r="18.3"/>
<path class="st28" d="M315.7,46.7h-1.9v-3c0-1.7-1.4-3-3-3H307c-1.7,0-3,1.4-3,3v3h-1.9c-0.6,0-1.1,0.5-1.1,1.1v9.8
	c0,0.6,0.5,1.1,1.1,1.1h13.6c0.6,0,1.1-0.5,1.1-1.1v-9.8C316.9,47.1,316.4,46.7,315.7,46.7z M309.3,53v1.2c0,0.2-0.2,0.4-0.4,0.4
	c-0.2,0-0.4-0.2-0.4-0.4V53c-0.5-0.2-0.8-0.7-0.7-1.3c0.1-0.5,0.5-0.8,0.9-0.9c0.7-0.1,1.4,0.4,1.4,1.1
	C310.1,52.4,309.8,52.9,309.3,53z M313.1,46.7h-8.3V44c0-1.5,1.1-2.6,2.6-2.6h3.2c1.4,0,2.5,1.2,2.5,2.6
	C313.1,44,313.1,46.7,313.1,46.7z"/>
<path class="st29" d="M159.6,81.3l-8.2-1.7c-1.5-1.1-3.4-1.7-5.3-1.5c-1.8,0.2-3.4,1.1-4.6,2.3c-3.3-2-7.4-0.3-8.7,0.3
	c-1.4-1-3-1.6-4.8-1.5c-0.1,0-0.3,0-0.4,0c-2,0.2-3.8,1.2-5,2.8c-1.3,1.6-1.8,3.5-1.6,5.5c0.2,2,1.2,3.8,2.8,5
	c1.5,1.2,3.3,1.7,5.1,1.6c0.1,0,0.3,0,0.4,0c2-0.2,3.8-1.2,5-2.8c1.3-1.6,1.8-3.5,1.6-5.5c-0.2-1.8-1-3.4-2.3-4.5
	c1.4-0.6,4.7-1.7,7.3-0.2c-1.1,1.5-1.7,3.3-1.5,5.3c0.4,4,3.9,6.9,7.9,6.7c0.1,0,0.3,0,0.4,0c2-0.2,3.8-1.2,5-2.8
	c1.3-1.6,1.8-3.5,1.6-5.5c-0.2-1.5-0.7-2.8-1.7-3.9l6.6,1.4L159.6,81.3z M133.6,90.9c-1.1,1.4-2.7,2.2-4.4,2.4
	c-1.7,0.2-3.5-0.3-4.8-1.4c-1.4-1.1-2.2-2.7-2.4-4.4c-0.2-1.7,0.3-3.5,1.4-4.8c1.1-1.4,2.7-2.2,4.4-2.4c0.1,0,0.2,0,0.3,0
	c1.6-0.1,3.2,0.4,4.5,1.4c1.4,1.1,2.2,2.7,2.4,4.4C135.2,87.8,134.7,89.5,133.6,90.9z M152.1,89.7c-1.1,1.4-2.7,2.2-4.4,2.4
	c-1.7,0.2-3.5-0.3-4.8-1.4c-1.4-1.1-2.2-2.7-2.4-4.4c-0.2-1.7,0.3-3.5,1.4-4.8c1.1-1.4,2.7-2.2,4.4-2.4c0.1,0,0.2,0,0.3,0
	c1.6-0.1,3.2,0.4,4.5,1.4c1.4,1.1,2.2,2.7,2.4,4.4C153.6,86.6,153.1,88.3,152.1,89.7z"/>
</svg>
