<?xml version="1.0" encoding="UTF-8"?>
<svg width="608px" height="417px" viewBox="0 0 608 417" version="1.1" xmlns="http://www.w3.org/2000/svg" xmlns:xlink="http://www.w3.org/1999/xlink">
    <defs>
        <linearGradient x1="51.5059751%" y1="65.9466802%" x2="65.7575835%" y2="42.0659132%" id="linearGradient-1">
            <stop stop-color="#FAFBFC" stop-opacity="0" offset="0%"></stop>
            <stop stop-color="#EEF0F4" offset="100%"></stop>
            <stop stop-color="#6F8DC1" offset="100%"></stop>
        </linearGradient>
        <path d="M16.3631763,0.00490227039 L16.3636364,17.1818182 L0.00487831442,17.1812773 C0.00163225281,17.0454875 0,16.909298 0,16.7727273 C0,7.64631208 7.28907711,0.222352069 16.3631763,0.00490227039 Z" id="path-2"></path>
        <path d="M18.8181818,2.04545455 C28.0815033,2.04545455 35.5909091,9.55486033 35.5909091,18.8181818 C35.5909091,28.0815033 28.0815033,35.5909091 18.8181818,35.5909091 C9.69143107,35.5909091 2.2672607,28.301296 2.05033286,19.2267319 L18.4090909,19.2272727 L18.4086308,2.05035682 C18.5447523,2.04709483 18.6812755,2.04545455 18.8181818,2.04545455 Z" id="path-4"></path>
        <path d="M20.0819672,0 C31.1729315,0 40.1639344,9.00324879 40.1639344,20.109319 C40.1639344,31.2153892 31.1729315,40.218638 20.0819672,40.218638 C8.99100298,40.218638 0,31.2153892 0,20.109319 C0,9.00324879 8.99100298,0 20.0819672,0 Z M20.0819672,9.57586619 C14.2724145,9.57586619 9.56284153,14.2918536 9.56284153,20.109319 C9.56284153,25.9267843 14.2724145,30.6427718 20.0819672,30.6427718 C25.8915199,30.6427718 30.6010929,25.9267843 30.6010929,20.109319 C30.6010929,14.2918536 25.8915199,9.57586619 20.0819672,9.57586619 Z" id="path-6"></path>
        <linearGradient x1="71.4292874%" y1="100%" x2="71.4292874%" y2="18.7309974%" id="linearGradient-8">
            <stop stop-color="#FFFFFF" offset="0%"></stop>
            <stop stop-color="#FFE1BC" offset="100%"></stop>
        </linearGradient>
        <path d="M20.6855011,0.0752757987 C15.2471033,0.41198995 12.8792183,7.38031068 10.3594847,15.3012328 C7.83975108,23.2221549 3.03563727,40.0377906 1.95128399,46.5474597 C0.866930721,53.0571288 -0.888406653,60.2120261 0.531438671,61.549795 C1.95128399,62.887564 7.52475088,59.5143737 13.3276688,57.195335 C17.1962808,55.6493091 22.1015023,54.3375441 28.0433335,53.2600399 C28.7255326,51.3233065 29.9207261,47.0540989 31.6289138,40.4524171 C34.1911955,30.5498944 35.4484727,24.3852752 36.7214687,19.7214041 C37.9944647,15.057533 37.9944647,7.76011028 35.0812601,4.09886957 C32.1680554,0.437628866 26.123899,-0.261438353 20.6855011,0.0752757987 Z" id="path-9"></path>
        <rect id="path-11" x="0" y="0" width="113" height="117" rx="6"></rect>
    </defs>
    <g id="登陆" stroke="none" stroke-width="1" fill="none" fill-rule="evenodd">
        <g id="登录-蓝" transform="translate(-108.000000, -214.000000)">
            <g id="编组-8" transform="translate(108.000000, 214.000000)">
                <g id="编组-7" transform="translate(45.000000, 0.000000)">
                    <g id="编组-5">
                        <path d="M266.743594,414.833605 C373.995491,413.971643 377.606988,413.109681 495.439671,414.833605 C516.342789,276.919721 404.137385,283.815415 344.830501,294.158957 C294.550497,302.928146 163.815537,163.288728 100.691316,164.002729 C24.4860214,164.864691 -0.915743527,256.663619 0.025062581,289.501364 C1.80294206,351.556184 29.1900519,414.833605 65.8814902,414.833605 C133.548023,414.833605 220.159161,415.207994 266.743594,414.833605 Z" id="椭圆形" fill="url(#linearGradient-1)"></path>
                        <circle id="椭圆形备份-6" fill="#D4E6FF" cx="164" cy="60" r="4"></circle>
                        <circle id="椭圆形备份-8" fill="#D4E6FF" opacity="0.404625302" cx="71" cy="10" r="10"></circle>
                        <circle id="椭圆形备份-7" stroke="#E4EDF9" stroke-width="3" cx="481.5" cy="106.5" r="6"></circle>
                        <circle id="椭圆形备份-11" stroke="#E4EDF9" stroke-width="3" cx="552" cy="353" r="9.5"></circle>
                        <circle id="椭圆形备份-9" stroke="#E4EDF9" stroke-width="3" cx="102" cy="74" r="4.5"></circle>
                        <rect id="矩形" fill="#BCD7FD" opacity="0.303796677" x="445" y="198" width="10" height="10"></rect>
                    </g>
                    <g id="编组-6" transform="translate(12.000000, 18.000000)">
                        <rect id="矩形" fill="#E4EDF9" opacity="0.704347883" x="226" y="0" width="162" height="59" rx="4"></rect>
                        <rect id="矩形" fill="#AECBFE" x="292" y="12" width="48" height="5" rx="2.5"></rect>
                        <rect id="矩形备份-32" fill="#AECBFE" x="292" y="27" width="68" height="5" rx="2.5"></rect>
                        <rect id="矩形备份-33" fill="#AECBFE" x="292" y="41" width="68" height="5" rx="2.5"></rect>
                        <g id="矩形" transform="translate(245.000000, 11.000000)">
                            <mask id="mask-3" fill="white">
                                <use xlink:href="#path-2"></use>
                            </mask>
                            <use id="形状结合" fill="#EFA141" xlink:href="#path-2"></use>
                            <mask id="mask-5" fill="white">
                                <use xlink:href="#path-4"></use>
                            </mask>
                            <use id="形状结合" fill="#FFFFFF" xlink:href="#path-4"></use>
                        </g>
                        <g id="编组" transform="translate(102.000000, 87.000000)">
                            <path d="M14,0 L286,0 C293.731986,3.56013962e-16 300,6.2680135 300,14 L300,22.9820789 L300,22.9820789 L0,22.9820789 L0,14 C8.29461588e-16,6.2680135 6.2680135,3.19669972e-15 14,0 Z" id="矩形" fill="#397EF6"></path>
                            <rect id="矩形" fill="#D8E4F6" x="0" y="22.9820789" width="300" height="213"></rect>
                            <rect id="矩形" fill="#FFFFFF" opacity="0.89885312" x="23" y="42" width="155.737705" height="74" rx="4"></rect>
                            <rect id="矩形备份-5" fill="#FDFEFF" opacity="0.89885312" x="118.032787" y="127.810036" width="155.737705" height="70" rx="4"></rect>
                            <rect id="矩形备份-4" fill="#FFFFFF" opacity="0.89885312" x="22.9508197" y="127.810036" width="83.6065574" height="70" rx="4"></rect>
                            <g id="矩形" transform="translate(44.000000, 138.000000)">
                                <mask id="mask-7" fill="white">
                                    <use xlink:href="#path-6"></use>
                                </mask>
                                <use id="蒙版" fill="#ECF2FB" xlink:href="#path-6"></use>
                                <rect fill="#EFA141" mask="url(#mask-7)" x="-1.91256831" y="-1.91517324" width="21.9945355" height="22.0244922"></rect>
                                <polygon fill="#BCD7FD" mask="url(#mask-7)" points="20.0819672 -1.91517324 41.1202186 -1.91517324 40.6252764 32.3414492 20.0819672 22.0244922"></polygon>
                            </g>
                            <rect id="矩形备份-9" fill="#FFFFFF" opacity="0.89885312" x="190.163934" y="42.3225806" width="83.6065574" height="74" rx="4"></rect>
                            <rect id="矩形" fill="#EFA141" x="227.04918" y="58.2759857" width="36.0655738" height="5.74551971" rx="2.87275986"></rect>
                            <rect id="矩形备份-21" fill="#E2EEFF" x="227.04918" y="69.7670251" width="27.8688525" height="5.74551971" rx="2.87275986"></rect>
                            <rect id="矩形备份-22" fill="#E2EEFF" x="198.360656" y="83.7204301" width="64.7540984" height="5.74551971" rx="2.87275986"></rect>
                            <rect id="矩形备份-23" fill="#E2EEFF" x="198.360656" y="95.2114695" width="64.7540984" height="5.74551971" rx="2.87275986"></rect>
                            <rect id="矩形" fill="#ECF2FB" x="45.0819672" y="61.5591398" width="9.01639344" height="34.4731183"></rect>
                            <ellipse id="椭圆形" fill="#FFFFFF" cx="240.983607" cy="10.6702509" rx="4.09836066" ry="4.10394265"></ellipse>
                            <ellipse id="椭圆形备份" fill="#FFFFFF" cx="259.016393" cy="10.6702509" rx="4.09836066" ry="4.10394265"></ellipse>
                            <ellipse id="椭圆形备份-2" fill="#FFFFFF" cx="276.229508" cy="10.6702509" rx="4.09836066" ry="4.10394265"></ellipse>
                            <rect id="矩形备份-11" fill="#ECF2FB" x="66.3934426" y="75.5125448" width="9.01639344" height="20.5197133"></rect>
                            <rect id="矩形备份-13" fill="#ECF2FB" x="86.8852459" y="55.8136201" width="9.01639344" height="40.218638"></rect>
                            <rect id="矩形备份-15" fill="#ECF2FB" x="108.196721" y="77.1541219" width="9.01639344" height="18.8781362"></rect>
                            <rect id="矩形备份-17" fill="#ECF2FB" x="129.508197" y="61.5591398" width="9.01639344" height="34.4731183"></rect>
                            <rect id="矩形备份-19" fill="#ECF2FB" x="150" y="78.7956989" width="9.01639344" height="17.2365591"></rect>
                            <rect id="矩形备份-10" fill="#EFA141" x="45.0819672" y="73.0501792" width="9.01639344" height="22.9820789"></rect>
                            <rect id="矩形备份-12" fill="#397EF6" x="66.3934426" y="80.437276" width="9.01639344" height="14.7741935"></rect>
                            <rect id="矩形备份-14" fill="#EFA141" x="86.8852459" y="68.9462366" width="9.01639344" height="27.90681"></rect>
                            <rect id="矩形备份-16" fill="#397EF6" x="108.196721" y="84.5412186" width="9.01639344" height="11.4910394"></rect>
                            <rect id="矩形备份-18" fill="#EFA141" x="129.508197" y="77.1541219" width="9.01639344" height="18.8781362"></rect>
                            <rect id="矩形备份-20" fill="#397EF6" x="150" y="85.3620072" width="9.01639344" height="10.6702509"></rect>
                            <ellipse id="椭圆形" fill="#E8F2FF" cx="208.606557" cy="64.4318996" rx="9.42622951" ry="9.4390681"></ellipse>
                            <g id="user-fill" transform="translate(204.918033, 58.275986)" fill="#96AFD1" fill-rule="nonzero">
                                <path d="M0,10.6702509 C0,8.52733568 1.83489857,6.79015966 4.09836066,6.79015966 C6.36182275,6.79015966 8.19672131,8.52733568 8.19672131,10.6702509 L0,10.6702509 L0,10.6702509 Z" id="形状"></path>
                                <path d="M4.09836066,5.82013685 C2.40010246,5.82013685 1.02459016,4.51788123 1.02459016,2.91006843 C1.02459016,1.30225562 2.40010246,0 4.09836066,0 C5.79661885,0 7.17213115,1.30225562 7.17213115,2.91006843 C7.17213115,4.51788123 5.79661885,5.82013685 4.09836066,5.82013685 Z" id="路径"></path>
                            </g>
                            <polyline id="路径-2" stroke="#E2EEFF" points="138.52459 144.458781 138.52459 184.677419 250.819672 184.677419"></polyline>
                            <path d="M147.540984,174.978781 C154.330107,174.978781 157.249381,157.858298 164.340242,157.858298 C171.431102,157.858298 177.321848,168.543173 184.71024,168.543173 C192.098632,168.543173 203.573388,144.780056 210.368341,151.43538 C217.163295,158.090704 223.32693,168.939648 228.678638,158.897993 C232.246443,152.203556 238.807116,146.843293 248.360656,142.817204 L248.360656,183.856631 L147.540984,183.856631 C147.540984,177.938064 147.540984,174.978781 147.540984,174.978781 Z" id="路径-3备份" fill="url(#linearGradient-8)"></path>
                            <path d="M147.540984,174.827957 C154.330107,174.827957 157.249381,157.787761 164.340242,157.787761 C171.431102,157.787761 177.321848,168.422529 184.71024,168.422529 C192.098632,168.422529 203.573388,144.770851 210.368341,151.394965 C217.163295,158.019078 223.32693,168.817145 228.678638,158.822581 C232.246443,152.159538 238.807116,146.824412 248.360656,142.817204" id="路径-3" stroke="#EFA141"></path>
                        </g>
                        <g id="编组-3" transform="translate(61.000000, 215.000000)">
                            <g id="编组" transform="translate(36.107623, 82.964286)" fill="#687B96">
                                <polygon id="Fill-1" points="0 5.12571429 146.892377 5.12571429 146.892377 0 0 0"></polygon>
                                <polygon id="Fill-2" points="95.1607136 5.12571429 98.0336197 96.1071429 99.1528286 96.1071429 100.270014 5.12571429"></polygon>
                                <polygon id="Fill-3" points="125.177851 5.12571429 128.0512 96.1071429 129.170188 96.1071429 130.287151 5.12571429"></polygon>
                            </g>
                            <path d="M53.1929058,50.9155817 C55.7961317,50.7408781 57.9178553,48.6565969 58.0590811,45.9973416 L59.0776864,26.8385407 C59.2311444,23.968093 57.0160116,21.516713 54.1269979,21.3652294 C51.21352,21.2060058 48.7748723,23.4174447 48.6225263,26.2889981 L47.603921,45.4466933 C47.450463,48.3182467 49.6678199,50.7696268 52.5546095,50.9211103 C52.7714523,50.9332732 52.982735,50.9299561 53.1929058,50.9155817" id="Fill-46" fill="#FFC289"></path>
                            <path d="M67.9892238,6.67634077 C69.1388496,8.02614444 69.9465123,9.64590885 70.3649671,11.3680334 C70.7429263,12.9169331 70.7631741,16.2734449 70.495453,19.9932788 C70.3919642,21.4319446 70.9060336,22.8503633 71.9071755,23.8885873 L71.9127998,23.8930866 C72.1299014,24.1191787 72.2390146,24.4273839 72.2108926,24.7389636 C72.1838955,25.0505433 72.0230379,25.3362517 71.7699403,25.5196 C71.3953558,25.7906856 70.9082834,26.0853928 70.3109729,26.3317319 C69.9656353,26.4734613 69.718162,26.7839162 69.6562937,27.1528625 C69.2018428,29.858094 68.6101567,32.250621 67.9116072,33.7140332 C66.0994281,37.5047318 61.010478,36.7477169 53.4782919,32.2146263 C45.9461059,27.6815356 39.4780549,20.8357813 40.2778434,13.1452749 C41.0765071,5.45476845 47.8257778,0.804694794 57.1004005,1.76867958 C61.1128419,2.18599389 65.2940151,3.50992632 67.9892238,6.67634077 Z" id="Fill-48" fill="#FFCC9C"></path>
                            <path d="M61.4890461,12.0144157 C60.8601687,15.8764875 59.9168525,17.8075234 59.9168525,17.8075234 C59.9168525,17.8075234 56.7724652,14.2672909 55.2002716,17.1638447 C53.628078,20.0603986 54.8858329,22.9558426 57.7157814,23.600631 L54.8858329,28.427111 C54.8858329,28.427111 52.6847618,31.0018255 47.3403877,28.427111 C47.3403877,28.427111 37.2783485,22.6340033 39.7938583,10.0833798 C42.3093681,-2.46724379 67.9556411,-4.00763334 69.7533632,9.47410464 C69.7533632,9.47410464 62.1179236,8.15345365 61.4890461,12.0144157 Z" id="Fill-74" fill="#2C1340"></path>
                            <polygon id="Fill-98" fill="#85AEFE" points="45.955157 176.607143 49.2376682 176.607143 49.2376682 136.357143 45.955157 136.357143"></polygon>
                            <polygon id="Fill-100" fill="#327DEA" points="44.3139013 136.357143 51.6995516 136.357143 51.6995516 126.5 44.3139013 126.5"></polygon>
                            <path d="M107.438326,168.392857 C107.438326,168.392857 109.102669,172.055771 110.318582,172.75724 C111.073029,173.192485 112.049047,173.958526 113.246637,175.055363 C107.708392,178.343683 104.536611,179.09344 103.731291,177.304634 C102.925972,175.515828 101.721072,172.545236 100.116592,168.392857 C104.997748,168.392857 107.438326,168.392857 107.438326,168.392857 Z" id="路径-4" fill="#FFC289"></path>
                            <polygon id="Fill-101" fill="#327DEA" points="61.5470852 179.071429 32.8251121 179.071429 45.749805 176.607143 49.1352847 176.607143"></polygon>
                            <path d="M61.8727253,165.107143 L59.0852018,171.1626 C60.405575,172.227848 61.6545597,173.062024 62.8321559,173.665128 C64.0097521,174.268231 65.769736,174.975094 68.1121076,175.785714 C67.1925797,173.451222 66.8702071,171.714368 67.1449898,170.575151 C67.4197725,169.435934 67.7421451,168.128895 68.1121076,166.654032 L61.8727253,165.107143 Z" id="路径-10" fill="#FFC289"></path>
                            <path d="M56.3172827,92.8214286 C71.414663,95.8920142 81.5262681,98.0862983 86.6520982,99.4042809 C94.3408433,101.381255 100.639414,104.622865 101.61728,113.437715 C102.269191,119.314282 105.325016,137.746921 110.784753,168.735631 L100.935814,171.678571 L84.3905206,123.790688 L52.5201794,104.990773 L56.3172827,92.8214286 Z" id="路径-7" fill="#215FCC"></path>
                            <path d="M67.2870939,20.6097605 L66.8929393,23.934983 C66.8421668,24.3746722 66.3397867,24.6889033 65.7719368,24.6373131 L65.7692645,24.6373131 C65.2000785,24.5845504 64.7818738,24.185899 64.8339823,23.7462098 L65.228137,20.4221598 C65.2802456,19.9824707 65.7826257,19.6682395 66.3518117,19.7198297 C66.9209977,19.7714199 67.3392025,20.1700714 67.2870939,20.6097605" id="Fill-50" fill="#532442"></path>
                            <path d="M65.996709,27.5326997 C66.0042984,27.5497771 66.7404734,29.1692764 68.9327354,29.6218255 C68.8394938,30.1739922 68.7440838,30.7090816 68.6421686,31.2142857 C65.8904569,30.6037715 64.9461146,28.4136049 64.905999,28.3154103 C64.7411999,27.9183626 64.8517887,27.4231203 65.1531977,27.2068075 C65.4546066,26.9904948 65.832994,27.1384982 65.996709,27.5326997" id="Fill-52" fill="#D63E39"></path>
                            <path d="M32.8331943,94.6410252 C32.6975229,94.7391052 31.4156913,93.892586 31.2747327,94.0028614 C28.445698,96.2160835 27.9013453,99.8586982 27.9013453,103.669699 C27.9013453,107.480699 31.899006,114.869395 35.1245523,115.99369 C38.3500985,117.117985 75.240331,118.5329 77.4655034,119.778012 C77.4655034,122.438845 69.9329693,136.121677 66.7405624,146.583127 C64.6122911,153.557427 62.6081814,159.821729 60.7282332,165.376034 L70.585593,170.035714 C86.9698231,140.675161 95.6910213,124.282927 96.7491876,120.859013 C98.3364371,115.723143 98.0960764,108.541485 93.9247507,106.137814 C89.753425,103.734143 58.954064,89.5357143 55.0334208,89.5357143 C51.1127776,89.5357143 35.6917859,92.5744836 32.8331943,94.6410252 Z" id="路径-6" fill="#397EF6"></path>
                            <path d="M89.1783716,79.0403205 C91.9207649,79.0403205 94.5264494,77.5603282 98.4728462,78.193046 C102.419243,78.8257639 104.795539,81.2136603 104.099044,82.9642857 C102.042548,82.9642857 97.0689909,82.9642857 89.1783716,82.9642857 C87.3501093,80.3483089 87.3501093,79.0403205 89.1783716,79.0403205 Z" id="路径-12" fill="#FECEA1"></path>
                            <rect id="矩形" fill="#43454E" x="131.300448" y="7.39285714" width="6.56502242" height="61.6071429" rx="3.28251121"></rect>
                            <path d="M36.2715249,127.321429 L36.048566,127.30687 C20.072776,126.249925 15.651735,112.57176 15.4718033,111.990392 L0.226497147,60.4621516 C-0.637957671,57.5407525 1.0479248,54.4766803 3.9913739,53.6187013 C6.93188932,52.7578106 10.0229998,54.4339755 10.8864767,57.3563452 L26.0848441,108.723472 C26.3928795,109.608626 28.7916438,115.670772 36.582494,116.289022 L66.3817379,115.882355 L69.9437877,115.882355 C72.9772026,115.882355 75.4551761,118.301973 75.4977578,121.320428 C75.5392746,124.365089 73.0857484,126.868175 70.0181073,126.909909 L36.2715249,127.321429 Z" id="Fill-96" fill="#A2C7F9"></path>
                            <path d="M90.2690583,83.6269456 C76.7397563,84.0572014 69.1797522,83.6129772 67.589046,82.2942731 C65.2029867,80.316217 55.2983582,70.0811054 53.4875024,67.544163 C51.6766466,65.0072206 48.1679342,61.5104413 46.5495402,59.0413416 C44.9311462,56.5722418 42.8931147,51.3439335 45.7278272,46.6823991 C48.5625397,42.0208646 54.2025745,40.3546829 58.9578941,43.518541 C63.7132137,46.6823991 65.8351656,57.1632495 67.589046,61.0515128 C68.7582996,63.6436883 70.7410109,68.3167063 73.5371801,75.0705668 C77.3271898,76.240006 80.1397588,77.0634383 81.9748872,77.5408637 C83.8100156,78.0182891 86.5747393,78.5363068 90.2690583,79.0949167 L90.2690583,83.6269456 Z" id="路径-5" fill="#EFA141"></path>
                            <path d="M102.596795,174.404423 C102.452752,176.951341 103.158136,178.432405 104.712944,178.847613 C107.045158,179.470427 111.0171,178.692721 112.327922,177.749849 C113.638745,176.806976 117.622024,175.457323 119.744574,173.988883 C121.867124,172.520442 121.743173,170.035714 120.819413,170.035714 C117.788484,170.035714 114.588213,170.243708 111.890333,171.118954 C109.579023,171.868789 112.327922,174.404423 108.977866,175.423867 C106.744495,176.103496 104.617471,175.763682 102.596795,174.404423 Z" id="路径-8" fill="#121E32"></path>
                            <path d="M57.5969598,174.519893 C57.4672546,176.841252 58.114763,178.191851 59.5394849,178.571691 C61.6765678,179.141451 64.5540088,177.889569 66.2691451,177.523678 C67.9842813,177.157787 71.3624491,175.492953 73.3056116,174.156373 C75.2487741,172.819793 75.1330257,170.554882 74.2867723,170.55406 C71.5101499,170.551367 68.8399985,170.432966 66.5083184,171.133999 C64.3478231,171.783564 65.7656655,174.440066 62.6975921,175.3663 C60.6522098,175.983789 58.951999,175.701654 57.5969598,174.519893 Z" id="路径-8备份" fill="#121E32" transform="translate(66.224388, 174.631510) rotate(41.000000) translate(-66.224388, -174.631510) "></path>
                            <path d="M136.224215,45.1785714 L156.007691,72.5240527 C157.052552,73.9682994 156.971828,75.942745 155.812575,77.2964253 L155.812575,77.2964253 L151.917417,81.8448732 C151.308907,82.5554423 150.421288,82.9642857 149.48712,82.9642857 L149.48712,82.9642857 L136.864829,82.9642857 C136.511028,82.9642857 136.224215,82.6767539 136.224215,82.3220653 L136.224215,82.3220653 L136.224215,79.8255714 L147.50141,79.825624 C148.171235,79.825624 148.814432,79.5626881 149.293261,79.0931242 L151.914104,76.52299 C152.815844,75.6386974 152.941495,74.2280177 152.210304,73.1975482 L136.224215,50.6685714 L136.224215,45.1785714 Z" id="形状结合" fill="#41454E"></path>
                            <path d="M110.788757,79.6785714 L125.55205,79.6785714 C127.820362,79.6785714 129.659193,81.5174019 129.659193,83.7857143 L129.659193,83.7857143 L129.659193,83.7857143 L106.681614,83.7857143 C106.681614,81.5174019 108.520445,79.6785714 110.788757,79.6785714 Z" id="矩形" fill="#43454E"></path>
                            <g id="路径-9" transform="translate(27.901345, 37.785714)">
                                <mask id="mask-10" fill="white">
                                    <use xlink:href="#path-9"></use>
                                </mask>
                                <use id="蒙版" fill="#EFA141" xlink:href="#path-9"></use>
                                <polygon fill="#E2912C" mask="url(#mask-10)" points="23.881355 26.5507188 32.9356085 37.6883375 30.9213355 42.5525867"></polygon>
                            </g>
                        </g>
                        <rect id="矩形" fill="#D0DAE7" x="0.5" y="394" width="463" height="2"></rect>
                        <g id="编组-4" transform="translate(18.000000, 69.000000)">
                            <rect id="矩形" fill="#397EF6" opacity="0.0805358887" x="0" y="0" width="60" height="73" rx="4"></rect>
                            <rect id="矩形" fill="#8CB9FE" opacity="0.695069813" x="12" y="39" width="37" height="4"></rect>
                            <rect id="矩形备份-24" fill="#8CB9FE" opacity="0.695069813" x="12" y="48" width="37" height="4"></rect>
                            <rect id="矩形备份-25" fill="#8CB9FE" opacity="0.695069813" x="12" y="57" width="37" height="4"></rect>
                            <g id="审批" transform="translate(18.000000, 9.000000)" fill-rule="nonzero">
                                <rect id="矩形" fill="#000000" opacity="0" x="0" y="0" width="24.804007" height="24.8928571"></rect>
                                <path d="M11.6707035,0.829761905 C9.08215684,0.829761905 6.97625097,3.05919222 6.97625097,5.79943282 C6.97625097,7.5590603 7.86121192,9.18101988 9.26909349,10.0700667 L8.81167242,13.9852601 L4.98365452,13.9852601 C4.18618565,13.9852601 3.537286,14.6739816 3.537286,15.5203654 L3.537286,18.7291353 C3.537286,19.5756464 4.18618565,20.2644953 4.98365452,20.2644953 L18.1663934,20.2644953 C18.9641013,20.2644953 19.6131205,19.5757737 19.6131205,18.7291353 L19.6131205,15.5203654 C19.6131205,14.6738543 18.9641013,13.9852601 18.1663934,13.9852601 L14.5199335,13.9852601 L14.0635882,10.0756702 C15.4767289,9.1878969 16.3650365,7.56389968 16.3650365,5.79930547 C16.365156,3.05919222 14.2591306,0.829761905 11.6707035,0.829761905 Z M19.0404776,21.5227365 L4.10992888,21.5227365 C3.66659448,21.5227365 3.30720093,21.9056667 3.30720093,22.3780349 C3.30720093,22.8504032 3.66659448,23.2333333 4.10992888,23.2333333 L19.0404776,23.2333333 C19.483812,23.2333333 19.8432056,22.8504032 19.8432056,22.3780349 C19.8432056,21.9056667 19.483812,21.5227365 19.0404776,21.5227365 Z" id="形状" fill="#EFA141"></path>
                            </g>
                        </g>
                        <g id="矩形" transform="translate(331.000000, 246.000000)">
                            <mask id="mask-12" fill="white">
                                <use xlink:href="#path-11"></use>
                            </mask>
                            <use id="蒙版" fill="#397EF6" opacity="0.298753284" xlink:href="#path-11"></use>
                            <rect fill="#397EF6" mask="url(#mask-12)" x="-9.82608696" y="-1.63636364" width="126.101449" height="19.6363636"></rect>
                        </g>
                        <path d="M271,271 L271,329 L321,329" id="路径-22" stroke="#397EF6" stroke-dasharray="4"></path>
                        <path d="M125,172 L47.4415952,172 L47.5,142.81362" id="路径-23" stroke="#397EF6" stroke-dasharray="4"></path>
                        <path d="M384,124 L444,124 L444,41 L388.166667,41" id="路径-24" stroke="#397EF6" stroke-dasharray="4"></path>
                        <rect id="矩形" fill="#FFFFFF" x="341" y="271" width="93" height="26" rx="4"></rect>
                        <rect id="矩形备份-26" fill="#FFFFFF" x="341" y="302" width="93" height="48" rx="4"></rect>
                        <rect id="矩形" fill="#EFA141" x="348" y="310" width="34" height="5" rx="2.5"></rect>
                        <rect id="矩形备份-29" fill="#E2EEFF" x="347" y="324" width="62" height="5" rx="2.5"></rect>
                        <rect id="矩形备份-30" fill="#E2EEFF" x="347" y="337" width="84" height="5" rx="2.5"></rect>
                        <circle id="椭圆形" fill="#EFA141" cx="352" cy="282" r="2"></circle>
                        <circle id="椭圆形备份-4" fill="#EFA141" cx="386" cy="282" r="2"></circle>
                        <circle id="椭圆形备份-5" fill="#E2EEFF" cx="422" cy="282" r="2"></circle>
                        <line x1="356" y1="282.5" x2="382" y2="282.5" id="路径-25" stroke="#EFA141"></line>
                        <line x1="391" y1="282.5" x2="417" y2="282.5" id="路径-26" stroke="#E2EEFF"></line>
                        <rect id="矩形" fill="#E2EEFF" x="346" y="288" width="11" height="2" rx="1"></rect>
                        <rect id="矩形备份-27" fill="#E2EEFF" x="381" y="288" width="11" height="2" rx="1"></rect>
                        <rect id="矩形备份-28" fill="#E2EEFF" x="416" y="288" width="11" height="2" rx="1"></rect>
                    </g>
                </g>
                <g id="编组-5备份" transform="translate(64.000000, 312.000000)">
                    <path d="M15,74 L37,74 L34.7745135,97.2854221 C34.6273983,98.824699 33.3344131,100 31.788122,100 L20.7985264,100 C19.2807441,100 18.0020709,98.8664137 17.8201532,97.3595729 L15,74 L15,74 Z" id="矩形" fill="#D9E6FF"></path>
                    <path d="M15.5315121,0 C21.0716162,1.74986738 24.98584,4.43942765 27.2741838,8.06868081 C30.7066994,13.5125605 31.5098794,17.4400425 31.5098794,21.4309837 C31.5098794,25.4219249 31.8910871,27.7682554 32.4379503,30.5580698 C32.9848135,33.3478842 33.3660212,41.1055134 32.4379503,43.41159 C31.5098794,45.7176666 28.3946573,49 27.7747256,49 C27.1547938,49 25.0280526,47.6397388 23.9609798,45.3610625 C22.8939071,43.0823861 23.6547553,41.2907904 22.826757,38.3488379 C21.9987587,35.4068855 18.1835982,29.4071924 17.4328693,25.3588813 C16.6821404,21.3105702 17.9203839,13.0922054 17.4328693,9.23807418 C17.1078595,6.66865337 16.2969031,3.58929532 15,0 L15.5315121,0 Z" id="路径-14" fill="#D6E5FF"></path>
                    <path d="M28,50 C27.7794119,54.5302664 27.5517863,58.022588 27.3171232,60.4769646 C27.08246,62.9313412 26.643419,66.1056863 26,70" id="路径-18" stroke="#DBEAFF"></path>
                    <path d="M31,58 C30.2773128,60.0129033 29.8165943,61.7349259 29.6178444,63.166068 C29.4190946,64.59721 29.2131465,66.541854 29,69" id="路径-19" stroke="#DBEAFF"></path>
                    <path d="M20,58 C20.7839076,60.363043 21.2533255,62.2735777 21.4082537,63.731604 C21.5631819,65.1896302 21.7604306,66.9457622 22,69" id="路径-20" stroke="#DBEAFF"></path>
                    <rect id="矩形" fill="#B7CFFA" x="12" y="67" width="28" height="7" rx="3.5"></rect>
                    <path d="M31.0691598,57 C30.7628192,52.4891281 31.4741718,48.8273996 33.2032178,46.0148144 C35.7967867,41.7959366 40.6134154,38.5951372 47.5282122,38.0541299 C52.1380768,37.6934584 55.6286727,39.135173 58,42.3792739 C54.9847762,42.5014431 52.4881222,43.1081795 50.5100381,44.1994831 C47.5429119,45.8364385 48.1087485,49.3536063 41.9600505,50.8975403 C37.8609185,51.9268297 34.2306216,53.9609829 31.0691598,57 Z" id="路径-13" fill="#DBEAFF"></path>
                    <path d="M0,32.58541 C4.08267659,30.8195859 7.19205842,30.5288383 9.32814549,31.7131673 C12.5322761,33.4896607 15.4602892,37.4867992 16.8703792,40.0568332 C18.2804693,42.6268672 19.8964642,43.6582437 21.3791113,47.5038416 C22.8617583,51.3494395 21.3791113,56.3450331 20.1579016,56.8808972 C18.936692,57.4167612 14.650254,56.0894532 13.921814,54.0032043 C13.1933739,51.9169555 12.9528295,50.4129917 11.3733808,49.0807607 C9.79393215,47.7485297 7.40222497,44.1739357 6.55357235,42.5885683 C5.70491974,41.0032009 5.19306603,37.1861476 3.79216749,35.9078844 C2.85823514,35.055709 1.59417931,33.9482175 0,32.58541 Z" id="路径-15" fill="#E8F1FF"></path>
                    <path d="M31,57 C33.4478723,52.3556157 35.6083296,49.17174 37.4813717,47.4483731 C40.290935,44.8633228 45.7154048,42 49.8231808,42 C52.5616981,42 55.0115463,42 57.1727253,42" id="路径-21" stroke="#FFFFFF"></path>
                    <path d="M16,0 C17.7125769,0.998690799 19.4908328,3.06901055 21.3347677,6.21095927 C24.1006701,10.9238823 24.1006701,19.543897 24.9979921,21.7147921 C25.8953141,23.8856871 27.7260854,27.8393326 28.5753618,33.2447377 C29.1415461,36.8483411 29.1415461,42.1000952 28.5753618,49" id="路径-16" stroke="#FFFFFF"></path>
                    <path d="M1,33.1319098 C3.08967333,32.7957792 5.1418976,33.102041 7.15667282,34.0506954 C10.1788356,35.473677 11.0538672,39.2288426 12.6972237,41.6624661 C14.3405803,44.0960897 15.8712866,46.6080691 17.5121313,49 C18.6060278,50.5946206 19.4353173,53.2612872 20,57" id="路径-17" stroke="#FFFFFF"></path>
                </g>
                <circle id="椭圆形" stroke="#BAD1F6" stroke-width="3" cx="64" cy="223" r="8.5"></circle>
                <circle id="椭圆形备份-10" fill="#D4E6FF" opacity="0.404625302" cx="4" cy="133" r="4"></circle>
            </g>
        </g>
    </g>
</svg>
